SplineFontDB: 3.2
FontName: Xidili
FullName: Xidili
FamilyName: Xidili
Weight: Regular
Copyright: Copyright (c) 2024, W.F.Turnip
UComments: "2024-6-10: Created with FontForge (http://fontforge.org)"
Version: 001.000
ItalicAngle: 0
UnderlinePosition: -89.4737
UnderlineWidth: 44.7368
Ascent: 625
Descent: 225
InvalidEm: 0
LayerCount: 2
Layer: 0 1 "+gMyXYgAA" 1
Layer: 1 1 "+Uk2XYgAA" 0
XUID: [1021 352 -730677569 469127]
OS2Version: 0
OS2_WeightWidthSlopeOnly: 0
OS2_UseTypoMetrics: 1
CreationTime: 1717996751
ModificationTime: 1743593048
OS2TypoAscent: 0
OS2TypoAOffset: 1
OS2TypoDescent: 0
OS2TypoDOffset: 1
OS2TypoLinegap: 0
OS2WinAscent: 0
OS2WinAOffset: 1
OS2WinDescent: 0
OS2WinDOffset: 1
HheadAscent: 0
HheadAOffset: 1
HheadDescent: 0
HheadDOffset: 1
OS2Vendor: 'PfEd'
MarkAttachClasses: 1
DEI: 91125
Encoding: UnicodeBmp
UnicodeInterp: none
NameList: AGL For New Fonts
DisplaySize: -48
AntiAlias: 0
FitToEm: 0
WinInfo: 14 14 10
BeginPrivate: 0
EndPrivate
BeginChars: 65536 95

StartChar: nine
Encoding: 57 57 0
Width: 500
Flags: W
LayerCount: 2
Fore
SplineSet
250 -25 m 1,0,-1
 232.322265625 -17.677734375 l 1,1,-1
 90.900390625 40.900390625 l 1,2,-1
 25 200 l 1,3,-1
 90.900390625 359.099609375 l 1,4,-1
 250 425 l 1,5,-1
 409.099609375 359.099609375 l 1,6,-1
 467.677734375 217.677734375 l 1,7,-1
 475 200 l 1,8,-1
 467.677734375 182.322265625 l 1,9,-1
 450 175 l 1,10,-1
 432.322265625 182.322265625 l 1,11,-1
 425 200 l 1,12,-1
 373.744140625 323.744140625 l 1,13,-1
 250 375 l 1,14,-1
 126.255859375 323.744140625 l 1,15,-1
 75 200 l 1,16,-1
 126.255859375 76.255859375 l 1,17,-1
 250 25 l 1,18,-1
 267.677734375 17.677734375 l 1,19,-1
 275 0 l 1,20,-1
 267.677734375 -17.677734375 l 1,21,-1
 250 -25 l 1,0,-1
250 325 m 1,22,-1
 338.388671875 288.388671875 l 1,23,-1
 375 200 l 1,24,-1
 338.388671875 111.611328125 l 1,25,-1
 250 75 l 1,26,-1
 161.611328125 111.611328125 l 1,27,-1
 125 200 l 1,28,-1
 161.611328125 288.388671875 l 1,29,-1
 250 325 l 1,22,-1
250 275 m 1,30,-1
 196.966796875 253.033203125 l 1,31,-1
 175 200 l 1,32,-1
 196.966796875 146.966796875 l 1,33,-1
 250 125 l 1,34,-1
 303.033203125 146.966796875 l 1,35,-1
 325 200 l 1,36,-1
 303.033203125 253.033203125 l 1,37,-1
 250 275 l 1,30,-1
EndSplineSet
EndChar

StartChar: eight
Encoding: 56 56 1
Width: 500
Flags: W
LayerCount: 2
Fore
SplineSet
90.9013671875 40.9013671875 m 1,0,-1
 83.5791015625 58.5791015625 l 1,1,-1
 24.9990234375 200 l 1,2,-1
 90.9013671875 359.098632812 l 1,3,-1
 250 425.000976562 l 1,4,-1
 409.098632812 359.098632812 l 1,5,-1
 475.000976562 200 l 1,6,-1
 416.421875 58.578125 l 1,7,-1
 409.099609375 40.900390625 l 1,8,-1
 391.419921875 33.5791015625 l 1,9,-1
 373.743164062 40.9013671875 l 1,10,-1
 366.419921875 58.5791015625 l 1,11,-1
 373.743164062 76.255859375 l 1,12,-1
 425 200 l 1,13,-1
 373.744140625 323.743164062 l 1,14,-1
 250 375 l 1,15,-1
 126.256835938 323.744140625 l 1,16,-1
 75 200 l 1,17,-1
 126.255859375 76.255859375 l 1,18,-1
 133.579101562 58.5791015625 l 1,19,-1
 126.255859375 40.9013671875 l 1,20,-1
 108.579101562 33.5791015625 l 1,21,-1
 90.9013671875 40.9013671875 l 1,0,-1
250 325 m 1,22,-1
 338.388671875 288.388671875 l 1,23,-1
 375 200 l 1,24,-1
 338.388671875 111.611328125 l 1,25,-1
 250 75 l 1,26,-1
 161.611328125 111.611328125 l 1,27,-1
 125 200 l 1,28,-1
 161.611328125 288.388671875 l 1,29,-1
 250 325 l 1,22,-1
250 275 m 1,30,-1
 196.966796875 253.033203125 l 1,31,-1
 175 200 l 1,32,-1
 196.966796875 146.966796875 l 1,33,-1
 250 125 l 1,34,-1
 303.033203125 146.966796875 l 1,35,-1
 325 200 l 1,36,-1
 303.033203125 253.033203125 l 1,37,-1
 250 275 l 1,30,-1
EndSplineSet
EndChar

StartChar: parenleft
Encoding: 40 40 2
Width: 500
Flags: W
LayerCount: 2
Fore
SplineSet
350 525 m 1,0,-1
 367.677734375 517.67578125 l 1,1,-1
 375 500 l 1,2,-1
 367.677734375 482.322265625 l 1,3,-1
 350 475 l 1,4,-1
 296.966796875 453.033203125 l 1,5,-1
 275 400 l 1,6,-1
 275 0 l 1,7,-1
 296.966796875 -53.033203125 l 1,8,-1
 350 -75 l 1,9,-1
 367.677734375 -82.322265625 l 1,10,-1
 375 -100 l 1,11,-1
 367.677734375 -117.677734375 l 1,12,-1
 350 -125 l 1,13,-1
 332.322265625 -117.67578125 l 1,14,-1
 261.611328125 -88.388671875 l 1,15,-1
 225 0 l 1,16,-1
 225 400 l 1,17,-1
 261.612304688 488.387695312 l 1,18,-1
 332.322265625 517.677734375 l 1,19,-1
 350 525 l 1,0,-1
EndSplineSet
EndChar

StartChar: parenright
Encoding: 41 41 3
Width: 500
Flags: W
LayerCount: 2
Fore
SplineSet
150 525 m 1,0,-1
 167.677734375 517.67578125 l 1,1,-1
 238.388671875 488.388671875 l 1,2,-1
 275 400 l 1,3,-1
 275 0 l 1,4,-1
 238.387695312 -88.3876953125 l 1,5,-1
 167.677734375 -117.677734375 l 1,6,-1
 150 -125 l 1,7,-1
 132.322265625 -117.67578125 l 1,8,-1
 125 -100 l 1,9,-1
 132.322265625 -82.322265625 l 1,10,-1
 150 -75 l 1,11,-1
 203.033203125 -53.033203125 l 1,12,-1
 225 0 l 1,13,-1
 225 400 l 1,14,-1
 203.033203125 453.033203125 l 1,15,-1
 150 475 l 1,16,-1
 132.322265625 482.322265625 l 1,17,-1
 125 500 l 1,18,-1
 132.322265625 517.677734375 l 1,19,-1
 150 525 l 1,0,-1
EndSplineSet
EndChar

StartChar: l
Encoding: 108 108 4
Width: 500
Flags: W
LayerCount: 2
Fore
SplineSet
250 425 m 1,0,-1
 391.421875 366.421875 l 1,1,-1
 409.099609375 359.099609375 l 1,2,-1
 416.421875 341.421875 l 1,3,-1
 475 200 l 1,4,-1
 416.421875 58.578125 l 1,5,-1
 409.099609375 40.900390625 l 1,6,-1
 391.421875 33.578125 l 1,7,-1
 250 -25 l 1,8,-1
 108.578125 33.578125 l 1,9,-1
 90.900390625 40.900390625 l 1,10,-1
 83.578125 58.578125 l 1,11,-1
 25 200 l 1,12,-1
 83.578125 341.421875 l 1,13,-1
 90.900390625 359.099609375 l 1,14,-1
 108.578125 366.421875 l 1,15,-1
 250 425 l 1,0,-1
250 375 m 1,16,-1
 126.255859375 323.744140625 l 1,17,-1
 75 200 l 1,18,-1
 126.255859375 76.255859375 l 1,19,-1
 250 25 l 1,20,-1
 373.744140625 76.255859375 l 1,21,-1
 425 200 l 1,22,-1
 373.744140625 323.744140625 l 1,23,-1
 250 375 l 1,16,-1
108.578125 366.421875 m 1,24,-1
 126.255859375 359.099609375 l 1,25,-1
 409.099609375 76.255859375 l 1,26,-1
 416.421875 58.578125 l 1,27,-1
 409.099609375 40.900390625 l 1,28,-1
 391.421875 33.578125 l 1,29,-1
 373.744140625 40.900390625 l 1,30,-1
 90.900390625 323.744140625 l 1,31,-1
 83.578125 341.421875 l 1,32,-1
 90.900390625 359.099609375 l 1,33,-1
 108.578125 366.421875 l 1,24,-1
EndSplineSet
EndChar

StartChar: Y
Encoding: 89 89 5
Width: 500
Flags: W
LayerCount: 2
Fore
SplineSet
90.9013671875 359.098632812 m 1,0,-1
 108.579101562 366.420898438 l 1,1,-1
 250 425.000976562 l 1,2,-1
 409.098632812 359.098632812 l 1,3,-1
 475.000976562 200 l 1,4,-1
 409.098632812 40.9013671875 l 1,5,-1
 250 -25.0009765625 l 1,6,-1
 108.578125 33.578125 l 1,7,-1
 90.900390625 40.900390625 l 1,8,-1
 83.5791015625 58.580078125 l 1,9,-1
 90.9013671875 76.2568359375 l 1,10,-1
 108.579101562 83.580078125 l 1,11,-1
 126.255859375 76.2568359375 l 1,12,-1
 250 25 l 1,13,-1
 373.743164062 76.255859375 l 1,14,-1
 425 200 l 1,15,-1
 373.744140625 323.743164062 l 1,16,-1
 250 375 l 1,17,-1
 126.255859375 323.744140625 l 1,18,-1
 108.579101562 316.420898438 l 1,19,-1
 90.9013671875 323.744140625 l 1,20,-1
 83.5791015625 341.420898438 l 1,21,-1
 90.9013671875 359.098632812 l 1,0,-1
108.578125 366.421875 m 1,22,-1
 126.255859375 359.099609375 l 1,23,-1
 409.099609375 76.255859375 l 1,24,-1
 416.421875 58.578125 l 1,25,-1
 409.099609375 40.900390625 l 1,26,-1
 391.421875 33.578125 l 1,27,-1
 373.744140625 40.900390625 l 1,28,-1
 90.900390625 323.744140625 l 1,29,-1
 83.578125 341.421875 l 1,30,-1
 90.900390625 359.099609375 l 1,31,-1
 108.578125 366.421875 l 1,22,-1
250 325 m 1,32,-1
 338.388671875 288.388671875 l 1,33,-1
 375 200 l 1,34,-1
 338.388671875 111.611328125 l 1,35,-1
 250 75 l 1,36,-1
 161.611328125 111.611328125 l 1,37,-1
 125 200 l 1,38,-1
 161.611328125 288.388671875 l 1,39,-1
 250 325 l 1,32,-1
250 275 m 1,40,-1
 196.966796875 253.033203125 l 1,41,-1
 175 200 l 1,42,-1
 196.966796875 146.966796875 l 1,43,-1
 250 125 l 1,44,-1
 303.033203125 146.966796875 l 1,45,-1
 325 200 l 1,46,-1
 303.033203125 253.033203125 l 1,47,-1
 250 275 l 1,40,-1
EndSplineSet
EndChar

StartChar: q
Encoding: 113 113 6
Width: 500
Flags: W
LayerCount: 2
Fore
SplineSet
90.9013671875 359.098632812 m 1,0,-1
 108.579101562 366.420898438 l 1,1,-1
 250 425.000976562 l 1,2,-1
 409.098632812 359.098632812 l 1,3,-1
 475.000976562 200 l 1,4,-1
 409.098632812 40.9013671875 l 1,5,-1
 250 -25.0009765625 l 1,6,-1
 108.578125 33.578125 l 1,7,-1
 90.900390625 40.900390625 l 1,8,-1
 83.5791015625 58.580078125 l 1,9,-1
 90.9013671875 76.2568359375 l 1,10,-1
 108.579101562 83.580078125 l 1,11,-1
 126.255859375 76.2568359375 l 1,12,-1
 250 25 l 1,13,-1
 373.743164062 76.255859375 l 1,14,-1
 425 200 l 1,15,-1
 373.744140625 323.743164062 l 1,16,-1
 250 375 l 1,17,-1
 126.255859375 323.744140625 l 1,18,-1
 108.579101562 316.420898438 l 1,19,-1
 90.9013671875 323.744140625 l 1,20,-1
 83.5791015625 341.420898438 l 1,21,-1
 90.9013671875 359.098632812 l 1,0,-1
EndSplineSet
EndChar

StartChar: e
Encoding: 101 101 7
Width: 0
VWidth: 894
GlyphClass: 4
Flags: W
LayerCount: 2
Fore
SplineSet
-409.098632812 523.744140625 m 1,0,-1
 -416.420898438 541.419921875 l 1,1,-1
 -409.099609375 559.099609375 l 1,2,-1
 -391.421875 566.421875 l 1,3,-1
 -373.745117188 559.099609375 l 1,4,-1
 -232.323242188 417.678710938 l 1,5,-1
 -225 400 l 1,6,-1
 -232.322265625 382.322265625 l 1,7,-1
 -250 375 l 1,8,-1
 -267.677734375 382.322265625 l 1,9,-1
 -409.098632812 523.744140625 l 1,0,-1
EndSplineSet
EndChar

StartChar: d
Encoding: 100 100 8
Width: 500
Flags: W
LayerCount: 2
Fore
SplineSet
409.098632812 359.098632812 m 1,0,-1
 416.420898438 341.420898438 l 1,1,-1
 475.000976562 200 l 1,2,-1
 409.098632812 40.9013671875 l 1,3,-1
 250 -25.0009765625 l 1,4,-1
 90.9013671875 40.9013671875 l 1,5,-1
 24.9990234375 200 l 1,6,-1
 83.578125 341.421875 l 1,7,-1
 90.900390625 359.099609375 l 1,8,-1
 108.580078125 366.420898438 l 1,9,-1
 126.256835938 359.098632812 l 1,10,-1
 133.580078125 341.420898438 l 1,11,-1
 126.256835938 323.744140625 l 1,12,-1
 75 200 l 1,13,-1
 126.255859375 76.2568359375 l 1,14,-1
 250 25 l 1,15,-1
 373.743164062 76.255859375 l 1,16,-1
 425 200 l 1,17,-1
 373.744140625 323.744140625 l 1,18,-1
 366.420898438 341.420898438 l 1,19,-1
 373.744140625 359.098632812 l 1,20,-1
 391.420898438 366.420898438 l 1,21,-1
 409.098632812 359.098632812 l 1,0,-1
108.578125 366.421875 m 1,22,-1
 126.255859375 359.099609375 l 1,23,-1
 409.099609375 76.255859375 l 1,24,-1
 416.421875 58.578125 l 1,25,-1
 409.099609375 40.900390625 l 1,26,-1
 391.421875 33.578125 l 1,27,-1
 373.744140625 40.900390625 l 1,28,-1
 90.900390625 323.744140625 l 1,29,-1
 83.578125 341.421875 l 1,30,-1
 90.900390625 359.099609375 l 1,31,-1
 108.578125 366.421875 l 1,22,-1
EndSplineSet
EndChar

StartChar: p
Encoding: 112 112 9
Width: 500
Flags: W
LayerCount: 2
Fore
SplineSet
409.098632812 40.9013671875 m 1,0,-1
 391.420898438 33.5791015625 l 1,1,-1
 250 -25.0009765625 l 1,2,-1
 90.9013671875 40.9013671875 l 1,3,-1
 24.9990234375 200 l 1,4,-1
 90.9013671875 359.098632812 l 1,5,-1
 250 425.000976562 l 1,6,-1
 391.421875 366.421875 l 1,7,-1
 409.099609375 359.099609375 l 1,8,-1
 416.420898438 341.419921875 l 1,9,-1
 409.098632812 323.743164062 l 1,10,-1
 391.420898438 316.419921875 l 1,11,-1
 373.744140625 323.743164062 l 1,12,-1
 250 375 l 1,13,-1
 126.256835938 323.744140625 l 1,14,-1
 75 200 l 1,15,-1
 126.255859375 76.2568359375 l 1,16,-1
 250 25 l 1,17,-1
 373.744140625 76.255859375 l 1,18,-1
 391.420898438 83.5791015625 l 1,19,-1
 409.098632812 76.255859375 l 1,20,-1
 416.420898438 58.5791015625 l 1,21,-1
 409.098632812 40.9013671875 l 1,0,-1
EndSplineSet
EndChar

StartChar: X
Encoding: 88 88 10
Width: 500
Flags: W
LayerCount: 2
Fore
SplineSet
25 200 m 1,0,-1
 32.322265625 217.677734375 l 1,1,-1
 90.900390625 359.099609375 l 1,2,-1
 250 425 l 1,3,-1
 409.099609375 359.099609375 l 1,4,-1
 475 200 l 1,5,-1
 409.099609375 40.900390625 l 1,6,-1
 267.677734375 -17.677734375 l 1,7,-1
 250 -25 l 1,8,-1
 232.322265625 -17.677734375 l 1,9,-1
 225 0 l 1,10,-1
 232.322265625 17.677734375 l 1,11,-1
 250 25 l 1,12,-1
 373.744140625 76.255859375 l 1,13,-1
 425 200 l 1,14,-1
 373.744140625 323.744140625 l 1,15,-1
 250 375 l 1,16,-1
 126.255859375 323.744140625 l 1,17,-1
 75 200 l 1,18,-1
 67.677734375 182.322265625 l 1,19,-1
 50 175 l 1,20,-1
 32.322265625 182.322265625 l 1,21,-1
 25 200 l 1,0,-1
108.578125 366.421875 m 1,22,-1
 126.255859375 359.099609375 l 1,23,-1
 409.099609375 76.255859375 l 1,24,-1
 416.421875 58.578125 l 1,25,-1
 409.099609375 40.900390625 l 1,26,-1
 391.421875 33.578125 l 1,27,-1
 373.744140625 40.900390625 l 1,28,-1
 90.900390625 323.744140625 l 1,29,-1
 83.578125 341.421875 l 1,30,-1
 90.900390625 359.099609375 l 1,31,-1
 108.578125 366.421875 l 1,22,-1
EndSplineSet
EndChar

StartChar: k
Encoding: 107 107 11
Width: 500
Flags: W
LayerCount: 2
Fore
SplineSet
250 425 m 1,0,-1
 267.677734375 417.677734375 l 1,1,-1
 409.099609375 359.099609375 l 1,2,-1
 475 200 l 1,3,-1
 409.099609375 40.900390625 l 1,4,-1
 250 -25 l 1,5,-1
 90.900390625 40.900390625 l 1,6,-1
 32.322265625 182.322265625 l 1,7,-1
 25 200 l 1,8,-1
 32.322265625 217.677734375 l 1,9,-1
 50 225 l 1,10,-1
 67.677734375 217.677734375 l 1,11,-1
 75 200 l 1,12,-1
 126.255859375 76.255859375 l 1,13,-1
 250 25 l 1,14,-1
 373.744140625 76.255859375 l 1,15,-1
 425 200 l 1,16,-1
 373.744140625 323.744140625 l 1,17,-1
 250 375 l 1,18,-1
 232.322265625 382.322265625 l 1,19,-1
 225 400 l 1,20,-1
 232.322265625 417.677734375 l 1,21,-1
 250 425 l 1,0,-1
EndSplineSet
EndChar

StartChar: braceright
Encoding: 125 125 12
Width: 500
Flags: W
LayerCount: 2
Fore
SplineSet
150 525 m 1,0,-1
 167.677734375 517.67578125 l 1,1,-1
 238.388671875 488.388671875 l 1,2,-1
 275 400 l 1,3,-1
 275 300 l 1,4,-1
 296.966796875 246.966796875 l 1,5,-1
 350 225 l 1,6,-1
 367.677734375 217.677734375 l 1,7,-1
 367.677734375 217.67578125 l 1,8,-1
 375 200 l 1,9,-1
 367.677734375 182.322265625 l 1,10,-1
 350 175 l 1,11,-1
 296.966796875 153.033203125 l 1,12,-1
 275 100 l 1,13,-1
 275 0 l 1,14,-1
 238.387695312 -88.3876953125 l 1,15,-1
 167.677734375 -117.677734375 l 1,16,-1
 150 -125 l 1,17,-1
 132.322265625 -117.67578125 l 1,18,-1
 125 -100 l 1,19,-1
 132.322265625 -82.322265625 l 1,20,-1
 150 -75 l 1,21,-1
 203.033203125 -53.033203125 l 1,22,-1
 225 0 l 1,23,-1
 225 100 l 1,24,-1
 261.611328125 188.388671875 l 1,25,-1
 289.64453125 200 l 1,26,-1
 261.611328125 211.611328125 l 1,27,-1
 225 300 l 1,28,-1
 225 400 l 1,29,-1
 203.033203125 453.033203125 l 1,30,-1
 150 475 l 1,31,-1
 132.322265625 482.322265625 l 1,32,-1
 125 500 l 1,33,-1
 132.322265625 517.677734375 l 1,34,-1
 150 525 l 1,0,-1
EndSplineSet
EndChar

StartChar: f
Encoding: 102 102 13
Width: 500
Flags: W
LayerCount: 2
Fore
SplineSet
90.9013671875 40.9013671875 m 1,0,-1
 83.5791015625 58.5791015625 l 1,1,-1
 24.9990234375 200 l 1,2,-1
 90.9013671875 359.098632812 l 1,3,-1
 250 425.000976562 l 1,4,-1
 409.098632812 359.098632812 l 1,5,-1
 475.000976562 200 l 1,6,-1
 416.421875 58.578125 l 1,7,-1
 409.099609375 40.900390625 l 1,8,-1
 391.419921875 33.5791015625 l 1,9,-1
 373.743164062 40.9013671875 l 1,10,-1
 366.419921875 58.5791015625 l 1,11,-1
 373.743164062 76.255859375 l 1,12,-1
 425 200 l 1,13,-1
 373.744140625 323.743164062 l 1,14,-1
 250 375 l 1,15,-1
 126.256835938 323.744140625 l 1,16,-1
 75 200 l 1,17,-1
 126.255859375 76.255859375 l 1,18,-1
 133.579101562 58.5791015625 l 1,19,-1
 126.255859375 40.9013671875 l 1,20,-1
 108.579101562 33.5791015625 l 1,21,-1
 90.9013671875 40.9013671875 l 1,0,-1
EndSplineSet
EndChar

StartChar: r
Encoding: 114 114 14
Width: 500
Flags: W
LayerCount: 2
Fore
SplineSet
250 425 m 1,0,-1
 391.421875 366.421875 l 1,1,-1
 409.099609375 359.099609375 l 1,2,-1
 416.421875 341.421875 l 1,3,-1
 475 200 l 1,4,-1
 416.421875 58.578125 l 1,5,-1
 409.099609375 40.900390625 l 1,6,-1
 391.421875 33.578125 l 1,7,-1
 250 -25 l 1,8,-1
 108.578125 33.578125 l 1,9,-1
 90.900390625 40.900390625 l 1,10,-1
 83.578125 58.578125 l 1,11,-1
 25 200 l 1,12,-1
 83.578125 341.421875 l 1,13,-1
 90.900390625 359.099609375 l 1,14,-1
 108.578125 366.421875 l 1,15,-1
 250 425 l 1,0,-1
250 375 m 1,16,-1
 126.255859375 323.744140625 l 1,17,-1
 75 200 l 1,18,-1
 126.255859375 76.255859375 l 1,19,-1
 250 25 l 1,20,-1
 373.744140625 76.255859375 l 1,21,-1
 425 200 l 1,22,-1
 373.744140625 323.744140625 l 1,23,-1
 250 375 l 1,16,-1
EndSplineSet
EndChar

StartChar: s
Encoding: 115 115 15
Width: 500
Flags: W
LayerCount: 2
Fore
SplineSet
475 200 m 1,0,-1
 467.677734375 182.322265625 l 1,1,-1
 409.099609375 40.900390625 l 1,2,-1
 250 -25 l 1,3,-1
 90.900390625 40.900390625 l 1,4,-1
 25 200 l 1,5,-1
 90.900390625 359.099609375 l 1,6,-1
 232.322265625 417.677734375 l 1,7,-1
 250 425 l 1,8,-1
 267.677734375 417.677734375 l 1,9,-1
 275 400 l 1,10,-1
 267.677734375 382.322265625 l 1,11,-1
 250 375 l 1,12,-1
 126.255859375 323.744140625 l 1,13,-1
 75 200 l 1,14,-1
 126.255859375 76.255859375 l 1,15,-1
 250 25 l 1,16,-1
 373.744140625 76.255859375 l 1,17,-1
 425 200 l 1,18,-1
 432.322265625 217.677734375 l 1,19,-1
 450 225 l 1,20,-1
 467.677734375 217.677734375 l 1,21,-1
 475 200 l 1,0,-1
EndSplineSet
EndChar

StartChar: g
Encoding: 103 103 16
Width: 500
Flags: W
LayerCount: 2
Fore
SplineSet
250 425 m 1,0,-1
 267.677734375 417.677734375 l 1,1,-1
 409.099609375 359.099609375 l 1,2,-1
 475 200 l 1,3,-1
 409.099609375 40.900390625 l 1,4,-1
 250 -25 l 1,5,-1
 90.900390625 40.900390625 l 1,6,-1
 32.322265625 182.322265625 l 1,7,-1
 25 200 l 1,8,-1
 32.322265625 217.677734375 l 1,9,-1
 50 225 l 1,10,-1
 67.677734375 217.677734375 l 1,11,-1
 75 200 l 1,12,-1
 126.255859375 76.255859375 l 1,13,-1
 250 25 l 1,14,-1
 373.744140625 76.255859375 l 1,15,-1
 425 200 l 1,16,-1
 373.744140625 323.744140625 l 1,17,-1
 250 375 l 1,18,-1
 232.322265625 382.322265625 l 1,19,-1
 225 400 l 1,20,-1
 232.322265625 417.677734375 l 1,21,-1
 250 425 l 1,0,-1
108.578125 366.421875 m 1,22,-1
 126.255859375 359.099609375 l 1,23,-1
 409.099609375 76.255859375 l 1,24,-1
 416.421875 58.578125 l 1,25,-1
 409.099609375 40.900390625 l 1,26,-1
 391.421875 33.578125 l 1,27,-1
 373.744140625 40.900390625 l 1,28,-1
 90.900390625 323.744140625 l 1,29,-1
 83.578125 341.421875 l 1,30,-1
 90.900390625 359.099609375 l 1,31,-1
 108.578125 366.421875 l 1,22,-1
EndSplineSet
EndChar

StartChar: asciitilde
Encoding: 126 126 17
Width: 500
Flags: W
LayerCount: 2
Fore
SplineSet
108.578125 366.421875 m 1,0,-1
 126.255859375 359.099609375 l 1,1,-1
 126.259765625 359.095703125 l 1,2,-1
 384.09765625 101.2578125 l 1,3,-1
 425 200 l 1,4,-1
 373.744140625 323.7421875 l 1,5,-1
 373.744140625 323.744140625 l 1,6,-1
 366.421875 341.421875 l 1,7,-1
 373.744140625 359.099609375 l 1,8,-1
 391.421875 366.421875 l 1,9,-1
 409.099609375 359.099609375 l 1,10,-1
 416.421875 341.421875 l 1,11,-1
 475.001953125 200 l 1,12,-1
 416.421875 58.578125 l 1,13,-1
 409.099609375 40.900390625 l 1,14,-1
 391.421875 33.578125 l 1,15,-1
 373.744140625 40.900390625 l 1,16,-1
 373.7421875 40.900390625 l 1,17,-1
 373.740234375 40.904296875 l 1,18,-1
 115.90234375 298.7421875 l 1,19,-1
 75 200 l 1,20,-1
 126.255859375 76.2578125 l 1,21,-1
 126.255859375 76.255859375 l 1,22,-1
 133.578125 58.578125 l 1,23,-1
 126.255859375 40.900390625 l 1,24,-1
 108.578125 33.578125 l 1,25,-1
 90.900390625 40.900390625 l 1,26,-1
 83.578125 58.578125 l 1,27,-1
 24.998046875 200 l 1,28,-1
 83.578125 341.421875 l 1,29,-1
 90.900390625 359.099609375 l 1,30,-1
 108.578125 366.421875 l 1,0,-1
EndSplineSet
EndChar

StartChar: j
Encoding: 106 106 18
Width: 500
Flags: W
LayerCount: 2
Fore
SplineSet
475 200 m 1,0,-1
 467.677734375 182.322265625 l 1,1,-1
 409.099609375 40.900390625 l 1,2,-1
 250 -25 l 1,3,-1
 90.900390625 40.900390625 l 1,4,-1
 25 200 l 1,5,-1
 90.900390625 359.099609375 l 1,6,-1
 232.322265625 417.677734375 l 1,7,-1
 250 425 l 1,8,-1
 267.677734375 417.677734375 l 1,9,-1
 275 400 l 1,10,-1
 267.677734375 382.322265625 l 1,11,-1
 250 375 l 1,12,-1
 126.255859375 323.744140625 l 1,13,-1
 75 200 l 1,14,-1
 126.255859375 76.255859375 l 1,15,-1
 250 25 l 1,16,-1
 373.744140625 76.255859375 l 1,17,-1
 425 200 l 1,18,-1
 432.322265625 217.677734375 l 1,19,-1
 450 225 l 1,20,-1
 467.677734375 217.677734375 l 1,21,-1
 475 200 l 1,0,-1
108.578125 366.421875 m 1,22,-1
 126.255859375 359.099609375 l 1,23,-1
 409.099609375 76.255859375 l 1,24,-1
 416.421875 58.578125 l 1,25,-1
 409.099609375 40.900390625 l 1,26,-1
 391.421875 33.578125 l 1,27,-1
 373.744140625 40.900390625 l 1,28,-1
 90.900390625 323.744140625 l 1,29,-1
 83.578125 341.421875 l 1,30,-1
 90.900390625 359.099609375 l 1,31,-1
 108.578125 366.421875 l 1,22,-1
250 325 m 1,32,-1
 338.388671875 288.388671875 l 1,33,-1
 375 200 l 1,34,-1
 338.388671875 111.611328125 l 1,35,-1
 250 75 l 1,36,-1
 161.611328125 111.611328125 l 1,37,-1
 125 200 l 1,38,-1
 161.611328125 288.388671875 l 1,39,-1
 250 325 l 1,32,-1
250 275 m 1,40,-1
 196.966796875 253.033203125 l 1,41,-1
 175 200 l 1,42,-1
 196.966796875 146.966796875 l 1,43,-1
 250 125 l 1,44,-1
 303.033203125 146.966796875 l 1,45,-1
 325 200 l 1,46,-1
 303.033203125 253.033203125 l 1,47,-1
 250 275 l 1,40,-1
EndSplineSet
EndChar

StartChar: c
Encoding: 99 99 19
Width: 500
Flags: W
LayerCount: 2
Fore
SplineSet
90.9013671875 359.098632812 m 1,0,-1
 108.579101562 366.420898438 l 1,1,-1
 250 425.000976562 l 1,2,-1
 409.098632812 359.098632812 l 1,3,-1
 475.000976562 200 l 1,4,-1
 409.098632812 40.9013671875 l 1,5,-1
 250 -25.0009765625 l 1,6,-1
 108.578125 33.578125 l 1,7,-1
 90.900390625 40.900390625 l 1,8,-1
 83.5791015625 58.580078125 l 1,9,-1
 90.9013671875 76.2568359375 l 1,10,-1
 108.579101562 83.580078125 l 1,11,-1
 126.255859375 76.2568359375 l 1,12,-1
 250 25 l 1,13,-1
 373.743164062 76.255859375 l 1,14,-1
 425 200 l 1,15,-1
 373.744140625 323.743164062 l 1,16,-1
 250 375 l 1,17,-1
 126.255859375 323.744140625 l 1,18,-1
 108.579101562 316.420898438 l 1,19,-1
 90.9013671875 323.744140625 l 1,20,-1
 83.5791015625 341.420898438 l 1,21,-1
 90.9013671875 359.098632812 l 1,0,-1
108.578125 366.421875 m 1,22,-1
 126.255859375 359.099609375 l 1,23,-1
 409.099609375 76.255859375 l 1,24,-1
 416.421875 58.578125 l 1,25,-1
 409.099609375 40.900390625 l 1,26,-1
 391.421875 33.578125 l 1,27,-1
 373.744140625 40.900390625 l 1,28,-1
 90.900390625 323.744140625 l 1,29,-1
 83.578125 341.421875 l 1,30,-1
 90.900390625 359.099609375 l 1,31,-1
 108.578125 366.421875 l 1,22,-1
EndSplineSet
EndChar

StartChar: w
Encoding: 119 119 20
Width: 0
VWidth: 894
GlyphClass: 4
Flags: W
LayerCount: 2
Fore
SplineSet
-450 25 m 1,0,-1
 -432.322265625 17.677734375 l 1,1,-1
 -425 0 l 1,2,-1
 -373.744140625 -123.744140625 l 1,3,-1
 -250 -175 l 1,4,-1
 -126.255859375 -123.744140625 l 1,5,-1
 -75 0 l 1,6,-1
 -67.677734375 17.677734375 l 1,7,-1
 -50 25 l 1,8,-1
 -32.322265625 17.677734375 l 1,9,-1
 -25 0 l 1,10,-1
 -32.322265625 -17.677734375 l 1,11,-1
 -90.900390625 -159.099609375 l 1,12,-1
 -250 -225 l 1,13,-1
 -409.099609375 -159.099609375 l 1,14,-1
 -467.677734375 -17.677734375 l 1,15,-1
 -475 0 l 1,16,-1
 -467.677734375 17.677734375 l 1,17,-1
 -450 25 l 1,0,-1
EndSplineSet
EndChar

StartChar: n
Encoding: 110 110 21
Width: 500
Flags: W
LayerCount: 2
Fore
SplineSet
250 -25 m 1,0,-1
 232.322265625 -17.677734375 l 1,1,-1
 90.900390625 40.900390625 l 1,2,-1
 25 200 l 1,3,-1
 90.900390625 359.099609375 l 1,4,-1
 250 425 l 1,5,-1
 409.099609375 359.099609375 l 1,6,-1
 467.677734375 217.677734375 l 1,7,-1
 475 200 l 1,8,-1
 467.677734375 182.322265625 l 1,9,-1
 450 175 l 1,10,-1
 432.322265625 182.322265625 l 1,11,-1
 425 200 l 1,12,-1
 373.744140625 323.744140625 l 1,13,-1
 250 375 l 1,14,-1
 126.255859375 323.744140625 l 1,15,-1
 75 200 l 1,16,-1
 126.255859375 76.255859375 l 1,17,-1
 250 25 l 1,18,-1
 267.677734375 17.677734375 l 1,19,-1
 275 0 l 1,20,-1
 267.677734375 -17.677734375 l 1,21,-1
 250 -25 l 1,0,-1
108.578125 366.421875 m 1,22,-1
 126.255859375 359.099609375 l 1,23,-1
 409.099609375 76.255859375 l 1,24,-1
 416.421875 58.578125 l 1,25,-1
 409.099609375 40.900390625 l 1,26,-1
 391.421875 33.578125 l 1,27,-1
 373.744140625 40.900390625 l 1,28,-1
 90.900390625 323.744140625 l 1,29,-1
 83.578125 341.421875 l 1,30,-1
 90.900390625 359.099609375 l 1,31,-1
 108.578125 366.421875 l 1,22,-1
EndSplineSet
EndChar

StartChar: z
Encoding: 122 122 22
Width: 500
Flags: W
LayerCount: 2
Fore
SplineSet
475 200 m 1,0,-1
 467.677734375 182.322265625 l 1,1,-1
 409.099609375 40.900390625 l 1,2,-1
 250 -25 l 1,3,-1
 90.900390625 40.900390625 l 1,4,-1
 25 200 l 1,5,-1
 90.900390625 359.099609375 l 1,6,-1
 232.322265625 417.677734375 l 1,7,-1
 250 425 l 1,8,-1
 267.677734375 417.677734375 l 1,9,-1
 275 400 l 1,10,-1
 267.677734375 382.322265625 l 1,11,-1
 250 375 l 1,12,-1
 126.255859375 323.744140625 l 1,13,-1
 75 200 l 1,14,-1
 126.255859375 76.255859375 l 1,15,-1
 250 25 l 1,16,-1
 373.744140625 76.255859375 l 1,17,-1
 425 200 l 1,18,-1
 432.322265625 217.677734375 l 1,19,-1
 450 225 l 1,20,-1
 467.677734375 217.677734375 l 1,21,-1
 475 200 l 1,0,-1
108.578125 366.421875 m 1,22,-1
 126.255859375 359.099609375 l 1,23,-1
 409.099609375 76.255859375 l 1,24,-1
 416.421875 58.578125 l 1,25,-1
 409.099609375 40.900390625 l 1,26,-1
 391.421875 33.578125 l 1,27,-1
 373.744140625 40.900390625 l 1,28,-1
 90.900390625 323.744140625 l 1,29,-1
 83.578125 341.421875 l 1,30,-1
 90.900390625 359.099609375 l 1,31,-1
 108.578125 366.421875 l 1,22,-1
EndSplineSet
EndChar

StartChar: m
Encoding: 109 109 23
Width: 500
Flags: W
LayerCount: 2
Fore
SplineSet
250 -25 m 1,0,-1
 232.322265625 -17.677734375 l 1,1,-1
 90.900390625 40.900390625 l 1,2,-1
 25 200 l 1,3,-1
 90.900390625 359.099609375 l 1,4,-1
 250 425 l 1,5,-1
 409.099609375 359.099609375 l 1,6,-1
 467.677734375 217.677734375 l 1,7,-1
 475 200 l 1,8,-1
 467.677734375 182.322265625 l 1,9,-1
 450 175 l 1,10,-1
 432.322265625 182.322265625 l 1,11,-1
 425 200 l 1,12,-1
 373.744140625 323.744140625 l 1,13,-1
 250 375 l 1,14,-1
 126.255859375 323.744140625 l 1,15,-1
 75 200 l 1,16,-1
 126.255859375 76.255859375 l 1,17,-1
 250 25 l 1,18,-1
 267.677734375 17.677734375 l 1,19,-1
 275 0 l 1,20,-1
 267.677734375 -17.677734375 l 1,21,-1
 250 -25 l 1,0,-1
EndSplineSet
EndChar

StartChar: v
Encoding: 118 118 24
Width: 500
Flags: W
LayerCount: 2
Fore
SplineSet
90.9013671875 40.9013671875 m 1,0,-1
 83.5791015625 58.5791015625 l 1,1,-1
 24.9990234375 200 l 1,2,-1
 90.9013671875 359.098632812 l 1,3,-1
 250 425.000976562 l 1,4,-1
 409.098632812 359.098632812 l 1,5,-1
 475.000976562 200 l 1,6,-1
 416.421875 58.578125 l 1,7,-1
 409.099609375 40.900390625 l 1,8,-1
 391.419921875 33.5791015625 l 1,9,-1
 373.743164062 40.9013671875 l 1,10,-1
 366.419921875 58.5791015625 l 1,11,-1
 373.743164062 76.255859375 l 1,12,-1
 425 200 l 1,13,-1
 373.744140625 323.743164062 l 1,14,-1
 250 375 l 1,15,-1
 126.256835938 323.744140625 l 1,16,-1
 75 200 l 1,17,-1
 126.255859375 76.255859375 l 1,18,-1
 133.579101562 58.5791015625 l 1,19,-1
 126.255859375 40.9013671875 l 1,20,-1
 108.579101562 33.5791015625 l 1,21,-1
 90.9013671875 40.9013671875 l 1,0,-1
108.578125 366.421875 m 1,22,-1
 126.255859375 359.099609375 l 1,23,-1
 409.099609375 76.255859375 l 1,24,-1
 416.421875 58.578125 l 1,25,-1
 409.099609375 40.900390625 l 1,26,-1
 391.421875 33.578125 l 1,27,-1
 373.744140625 40.900390625 l 1,28,-1
 90.900390625 323.744140625 l 1,29,-1
 83.578125 341.421875 l 1,30,-1
 90.900390625 359.099609375 l 1,31,-1
 108.578125 366.421875 l 1,22,-1
EndSplineSet
EndChar

StartChar: b
Encoding: 98 98 25
Width: 500
Flags: W
LayerCount: 2
Fore
SplineSet
409.098632812 40.9013671875 m 1,0,-1
 391.420898438 33.5791015625 l 1,1,-1
 250 -25.0009765625 l 1,2,-1
 90.9013671875 40.9013671875 l 1,3,-1
 24.9990234375 200 l 1,4,-1
 90.9013671875 359.098632812 l 1,5,-1
 250 425.000976562 l 1,6,-1
 391.421875 366.421875 l 1,7,-1
 409.099609375 359.099609375 l 1,8,-1
 416.420898438 341.419921875 l 1,9,-1
 409.098632812 323.743164062 l 1,10,-1
 391.420898438 316.419921875 l 1,11,-1
 373.744140625 323.743164062 l 1,12,-1
 250 375 l 1,13,-1
 126.256835938 323.744140625 l 1,14,-1
 75 200 l 1,15,-1
 126.255859375 76.2568359375 l 1,16,-1
 250 25 l 1,17,-1
 373.744140625 76.255859375 l 1,18,-1
 391.420898438 83.5791015625 l 1,19,-1
 409.098632812 76.255859375 l 1,20,-1
 416.420898438 58.5791015625 l 1,21,-1
 409.098632812 40.9013671875 l 1,0,-1
108.578125 366.421875 m 1,22,-1
 126.255859375 359.099609375 l 1,23,-1
 409.099609375 76.255859375 l 1,24,-1
 416.421875 58.578125 l 1,25,-1
 409.099609375 40.900390625 l 1,26,-1
 391.421875 33.578125 l 1,27,-1
 373.744140625 40.900390625 l 1,28,-1
 90.900390625 323.744140625 l 1,29,-1
 83.578125 341.421875 l 1,30,-1
 90.900390625 359.099609375 l 1,31,-1
 108.578125 366.421875 l 1,22,-1
EndSplineSet
EndChar

StartChar: t
Encoding: 116 116 26
Width: 500
Flags: W
LayerCount: 2
Fore
SplineSet
409.098632812 359.098632812 m 1,0,-1
 416.420898438 341.420898438 l 1,1,-1
 475.000976562 200 l 1,2,-1
 409.098632812 40.9013671875 l 1,3,-1
 250 -25.0009765625 l 1,4,-1
 90.9013671875 40.9013671875 l 1,5,-1
 24.9990234375 200 l 1,6,-1
 83.578125 341.421875 l 1,7,-1
 90.900390625 359.099609375 l 1,8,-1
 108.580078125 366.420898438 l 1,9,-1
 126.256835938 359.098632812 l 1,10,-1
 133.580078125 341.420898438 l 1,11,-1
 126.256835938 323.744140625 l 1,12,-1
 75 200 l 1,13,-1
 126.255859375 76.2568359375 l 1,14,-1
 250 25 l 1,15,-1
 373.743164062 76.255859375 l 1,16,-1
 425 200 l 1,17,-1
 373.744140625 323.744140625 l 1,18,-1
 366.420898438 341.420898438 l 1,19,-1
 373.744140625 359.098632812 l 1,20,-1
 391.420898438 366.420898438 l 1,21,-1
 409.098632812 359.098632812 l 1,0,-1
EndSplineSet
EndChar

StartChar: grave
Encoding: 96 96 27
Width: 500
Flags: W
LayerCount: 2
Fore
SplineSet
250 425 m 1,0,-1
 267.677734375 417.677734375 l 1,1,-1
 391.421875 366.421875 l 1,2,-1
 409.099609375 359.099609375 l 1,3,-1
 416.421875 341.419921875 l 1,4,-1
 409.099609375 323.7421875 l 1,5,-1
 391.421875 316.419921875 l 1,6,-1
 373.744140625 323.7421875 l 1,7,-1
 373.744140625 323.744140625 l 1,8,-1
 250 375 l 1,9,-1
 232.322265625 382.322265625 l 1,10,-1
 225 400 l 1,11,-1
 232.322265625 417.677734375 l 1,12,-1
 250 425 l 1,0,-1
EndSplineSet
EndChar

StartChar: H
Encoding: 72 72 28
Width: 500
Flags: W
LayerCount: 2
Fore
SplineSet
25 200 m 1,0,-1
 32.322265625 217.677734375 l 1,1,-1
 90.900390625 359.099609375 l 1,2,-1
 250 425 l 1,3,-1
 409.099609375 359.099609375 l 1,4,-1
 475 200 l 1,5,-1
 409.099609375 40.900390625 l 1,6,-1
 267.677734375 -17.677734375 l 1,7,-1
 250 -25 l 1,8,-1
 232.322265625 -17.677734375 l 1,9,-1
 225 0 l 1,10,-1
 232.322265625 17.677734375 l 1,11,-1
 250 25 l 1,12,-1
 373.744140625 76.255859375 l 1,13,-1
 425 200 l 1,14,-1
 373.744140625 323.744140625 l 1,15,-1
 250 375 l 1,16,-1
 126.255859375 323.744140625 l 1,17,-1
 75 200 l 1,18,-1
 67.677734375 182.322265625 l 1,19,-1
 50 175 l 1,20,-1
 32.322265625 182.322265625 l 1,21,-1
 25 200 l 1,0,-1
EndSplineSet
EndChar

StartChar: braceleft
Encoding: 123 123 29
Width: 500
Flags: W
LayerCount: 2
Fore
SplineSet
350 525 m 1,0,-1
 367.677734375 517.67578125 l 1,1,-1
 375 500 l 1,2,-1
 367.677734375 482.322265625 l 1,3,-1
 350 475 l 1,4,-1
 296.966796875 453.033203125 l 1,5,-1
 275 400 l 1,6,-1
 275 300 l 1,7,-1
 238.388671875 211.611328125 l 1,8,-1
 210.35546875 200 l 1,9,-1
 238.388671875 188.388671875 l 1,10,-1
 275 100 l 1,11,-1
 275 0 l 1,12,-1
 296.966796875 -53.033203125 l 1,13,-1
 350 -75 l 1,14,-1
 367.677734375 -82.322265625 l 1,15,-1
 375 -100 l 1,16,-1
 367.677734375 -117.677734375 l 1,17,-1
 350 -125 l 1,18,-1
 332.322265625 -117.67578125 l 1,19,-1
 261.611328125 -88.388671875 l 1,20,-1
 225 0 l 1,21,-1
 225 100 l 1,22,-1
 203.033203125 153.033203125 l 1,23,-1
 150 175 l 1,24,-1
 132.322265625 182.322265625 l 1,25,-1
 132.322265625 182.32421875 l 1,26,-1
 125 200 l 1,27,-1
 132.322265625 217.677734375 l 1,28,-1
 150 225 l 1,29,-1
 203.033203125 246.966796875 l 1,30,-1
 225 300 l 1,31,-1
 225 400 l 1,32,-1
 261.612304688 488.387695312 l 1,33,-1
 332.322265625 517.677734375 l 1,34,-1
 350 525 l 1,0,-1
EndSplineSet
EndChar

StartChar: o
Encoding: 111 111 30
Width: 0
VWidth: 894
GlyphClass: 4
Flags: W
LayerCount: 2
Fore
SplineSet
-450 25 m 1,0,-1
 -432.322265625 17.677734375 l 1,1,-1
 -425 0 l 1,2,-1
 -373.744140625 -123.744140625 l 1,3,-1
 -250 -175 l 1,4,-1
 -151.255859375 -134.099609375 l 1,5,-1
 -267.677734375 -17.677734375 l 1,6,-1
 -275 0 l 1,7,-1
 -267.677734375 17.677734375 l 1,8,-1
 -250 25 l 1,9,-1
 -232.322265625 17.677734375 l 1,10,-1
 -115.900390625 -98.744140625 l 1,11,-1
 -75 0 l 1,12,-1
 -67.677734375 17.677734375 l 1,13,-1
 -50 25 l 1,14,-1
 -32.322265625 17.677734375 l 1,15,-1
 -25 0 l 1,16,-1
 -32.322265625 -17.677734375 l 1,17,-1
 -83.578125 -141.421875 l 1,18,-1
 -90.900390625 -159.099609375 l 1,19,-1
 -108.578125 -166.421875 l 1,20,-1
 -250 -225 l 1,21,-1
 -409.099609375 -159.099609375 l 1,22,-1
 -467.677734375 -17.677734375 l 1,23,-1
 -475 0 l 1,24,-1
 -467.677734375 17.677734375 l 1,25,-1
 -450 25 l 1,0,-1
EndSplineSet
EndChar

StartChar: bar
Encoding: 124 124 31
Width: 500
Flags: W
LayerCount: 2
Fore
SplineSet
225 600 m 1,0,-1
 232.322265625 617.677734375 l 1,1,-1
 250 625 l 1,2,-1
 267.677734375 617.677734375 l 1,3,-1
 275 600 l 1,4,-1
 275 -200 l 1,5,-1
 267.677734375 -217.677734375 l 1,6,-1
 250 -225 l 1,7,-1
 232.322265625 -217.677734375 l 1,8,-1
 225 -200 l 1,9,-1
 225 600 l 1,0,-1
EndSplineSet
EndChar

StartChar: I
Encoding: 73 73 32
Width: 0
VWidth: 894
GlyphClass: 4
Flags: W
LayerCount: 2
Fore
SplineSet
-250 625 m 1,0,-1
 -90.900390625 559.099609375 l 1,1,-1
 -32.322265625 417.677734375 l 1,2,-1
 -25 400 l 1,3,-1
 -32.322265625 382.322265625 l 1,4,-1
 -50 375 l 1,5,-1
 -67.677734375 382.322265625 l 1,6,-1
 -75 400 l 1,7,-1
 -126.255859375 523.744140625 l 1,8,-1
 -250 575 l 1,9,-1
 -373.744140625 523.744140625 l 1,10,-1
 -425 400 l 1,11,-1
 -432.322265625 382.322265625 l 1,12,-1
 -450 375 l 1,13,-1
 -467.677734375 382.322265625 l 1,14,-1
 -475 400 l 1,15,-1
 -467.677734375 417.677734375 l 1,16,-1
 -409.099609375 559.099609375 l 1,17,-1
 -250 625 l 1,0,-1
EndSplineSet
EndChar

StartChar: a
Encoding: 97 97 33
Width: 0
VWidth: 894
GlyphClass: 4
Flags: W
LayerCount: 2
Fore
SplineSet
-250 625 m 1,0,-1
 -90.900390625 559.099609375 l 1,1,-1
 -32.322265625 417.677734375 l 1,2,-1
 -25 400 l 1,3,-1
 -32.322265625 382.322265625 l 1,4,-1
 -50 375 l 1,5,-1
 -67.677734375 382.322265625 l 1,6,-1
 -75 400 l 1,7,-1
 -126.255859375 523.744140625 l 1,8,-1
 -250 575 l 1,9,-1
 -348.744140625 534.099609375 l 1,10,-1
 -232.322265625 417.677734375 l 1,11,-1
 -225 400 l 1,12,-1
 -232.322265625 382.322265625 l 1,13,-1
 -250 375 l 1,14,-1
 -267.677734375 382.322265625 l 1,15,-1
 -384.099609375 498.744140625 l 1,16,-1
 -425 400 l 1,17,-1
 -432.322265625 382.322265625 l 1,18,-1
 -450 375 l 1,19,-1
 -467.677734375 382.322265625 l 1,20,-1
 -475 400 l 1,21,-1
 -467.677734375 417.677734375 l 1,22,-1
 -416.421875 541.421875 l 1,23,-1
 -409.099609375 559.099609375 l 1,24,-1
 -391.421875 566.421875 l 1,25,-1
 -250 625 l 1,0,-1
EndSplineSet
EndChar

StartChar: u
Encoding: 117 117 34
Width: 0
VWidth: 894
GlyphClass: 4
Flags: W
LayerCount: 2
Fore
SplineSet
-267.677734375 -17.677734375 m 1,0,-1
 -275 0 l 1,1,-1
 -267.677734375 17.677734375 l 1,2,-1
 -250 25 l 1,3,-1
 -232.322265625 17.677734375 l 1,4,-1
 -90.9013671875 -123.744140625 l 1,5,-1
 -83.5791015625 -141.420898438 l 1,6,-1
 -90.900390625 -159.099609375 l 1,7,-1
 -108.578125 -166.421875 l 1,8,-1
 -126.254882812 -159.099609375 l 1,9,-1
 -267.677734375 -17.677734375 l 1,0,-1
EndSplineSet
EndChar

StartChar: underscore
Encoding: 95 95 35
Width: 500
Flags: W
LayerCount: 2
Fore
SplineSet
108.578125 83.580078125 m 1,0,-1
 126.255859375 76.2578125 l 1,1,-1
 250 25 l 1,2,-1
 373.7421875 76.255859375 l 1,3,-1
 373.744140625 76.255859375 l 1,4,-1
 391.421875 83.578125 l 1,5,-1
 409.099609375 76.255859375 l 1,6,-1
 416.421875 58.578125 l 1,7,-1
 409.099609375 40.900390625 l 1,8,-1
 391.421875 33.578125 l 1,9,-1
 250 -25.001953125 l 1,10,-1
 108.578125 33.578125 l 1,11,-1
 90.900390625 40.900390625 l 1,12,-1
 83.578125 58.580078125 l 1,13,-1
 90.900390625 76.2578125 l 1,14,-1
 108.578125 83.580078125 l 1,0,-1
EndSplineSet
EndChar

StartChar: K
Encoding: 75 75 36
Width: 500
Flags: W
LayerCount: 2
Fore
SplineSet
250 425 m 1,0,-1
 267.677734375 417.677734375 l 1,1,-1
 409.099609375 359.099609375 l 1,2,-1
 475 200 l 1,3,-1
 409.099609375 40.900390625 l 1,4,-1
 250 -25 l 1,5,-1
 90.900390625 40.900390625 l 1,6,-1
 32.322265625 182.322265625 l 1,7,-1
 25 200 l 1,8,-1
 32.322265625 217.677734375 l 1,9,-1
 50 225 l 1,10,-1
 67.677734375 217.677734375 l 1,11,-1
 75 200 l 1,12,-1
 126.255859375 76.255859375 l 1,13,-1
 250 25 l 1,14,-1
 373.744140625 76.255859375 l 1,15,-1
 425 200 l 1,16,-1
 373.744140625 323.744140625 l 1,17,-1
 250 375 l 1,18,-1
 232.322265625 382.322265625 l 1,19,-1
 225 400 l 1,20,-1
 232.322265625 417.677734375 l 1,21,-1
 250 425 l 1,0,-1
EndSplineSet
EndChar

StartChar: x
Encoding: 120 120 37
Width: 500
Flags: W
LayerCount: 2
Fore
SplineSet
25 200 m 1,0,-1
 32.322265625 217.677734375 l 1,1,-1
 90.900390625 359.099609375 l 1,2,-1
 250 425 l 1,3,-1
 409.099609375 359.099609375 l 1,4,-1
 475 200 l 1,5,-1
 409.099609375 40.900390625 l 1,6,-1
 267.677734375 -17.677734375 l 1,7,-1
 250 -25 l 1,8,-1
 232.322265625 -17.677734375 l 1,9,-1
 225 0 l 1,10,-1
 232.322265625 17.677734375 l 1,11,-1
 250 25 l 1,12,-1
 373.744140625 76.255859375 l 1,13,-1
 425 200 l 1,14,-1
 373.744140625 323.744140625 l 1,15,-1
 250 375 l 1,16,-1
 126.255859375 323.744140625 l 1,17,-1
 75 200 l 1,18,-1
 67.677734375 182.322265625 l 1,19,-1
 50 175 l 1,20,-1
 32.322265625 182.322265625 l 1,21,-1
 25 200 l 1,0,-1
108.578125 366.421875 m 1,22,-1
 126.255859375 359.099609375 l 1,23,-1
 409.099609375 76.255859375 l 1,24,-1
 416.421875 58.578125 l 1,25,-1
 409.099609375 40.900390625 l 1,26,-1
 391.421875 33.578125 l 1,27,-1
 373.744140625 40.900390625 l 1,28,-1
 90.900390625 323.744140625 l 1,29,-1
 83.578125 341.421875 l 1,30,-1
 90.900390625 359.099609375 l 1,31,-1
 108.578125 366.421875 l 1,22,-1
EndSplineSet
EndChar

StartChar: P
Encoding: 80 80 38
Width: 500
Flags: W
LayerCount: 2
Fore
SplineSet
409.098632812 40.9013671875 m 1,0,-1
 391.420898438 33.5791015625 l 1,1,-1
 250 -25.0009765625 l 1,2,-1
 90.9013671875 40.9013671875 l 1,3,-1
 24.9990234375 200 l 1,4,-1
 90.9013671875 359.098632812 l 1,5,-1
 250 425.000976562 l 1,6,-1
 391.421875 366.421875 l 1,7,-1
 409.099609375 359.099609375 l 1,8,-1
 416.420898438 341.419921875 l 1,9,-1
 409.098632812 323.743164062 l 1,10,-1
 391.420898438 316.419921875 l 1,11,-1
 373.744140625 323.743164062 l 1,12,-1
 250 375 l 1,13,-1
 126.256835938 323.744140625 l 1,14,-1
 75 200 l 1,15,-1
 126.255859375 76.2568359375 l 1,16,-1
 250 25 l 1,17,-1
 373.744140625 76.255859375 l 1,18,-1
 391.420898438 83.5791015625 l 1,19,-1
 409.098632812 76.255859375 l 1,20,-1
 416.420898438 58.5791015625 l 1,21,-1
 409.098632812 40.9013671875 l 1,0,-1
EndSplineSet
EndChar

StartChar: D
Encoding: 68 68 39
Width: 500
Flags: W
LayerCount: 2
Fore
SplineSet
409.098632812 359.098632812 m 1,0,-1
 416.420898438 341.420898438 l 1,1,-1
 475.000976562 200 l 1,2,-1
 409.098632812 40.9013671875 l 1,3,-1
 250 -25.0009765625 l 1,4,-1
 90.9013671875 40.9013671875 l 1,5,-1
 24.9990234375 200 l 1,6,-1
 83.578125 341.421875 l 1,7,-1
 90.900390625 359.099609375 l 1,8,-1
 108.580078125 366.420898438 l 1,9,-1
 126.256835938 359.098632812 l 1,10,-1
 133.580078125 341.420898438 l 1,11,-1
 126.256835938 323.744140625 l 1,12,-1
 75 200 l 1,13,-1
 126.255859375 76.2568359375 l 1,14,-1
 250 25 l 1,15,-1
 373.743164062 76.255859375 l 1,16,-1
 425 200 l 1,17,-1
 373.744140625 323.744140625 l 1,18,-1
 366.420898438 341.420898438 l 1,19,-1
 373.744140625 359.098632812 l 1,20,-1
 391.420898438 366.420898438 l 1,21,-1
 409.098632812 359.098632812 l 1,0,-1
108.578125 366.421875 m 1,22,-1
 126.255859375 359.099609375 l 1,23,-1
 409.099609375 76.255859375 l 1,24,-1
 416.421875 58.578125 l 1,25,-1
 409.099609375 40.900390625 l 1,26,-1
 391.421875 33.578125 l 1,27,-1
 373.744140625 40.900390625 l 1,28,-1
 90.900390625 323.744140625 l 1,29,-1
 83.578125 341.421875 l 1,30,-1
 90.900390625 359.099609375 l 1,31,-1
 108.578125 366.421875 l 1,22,-1
EndSplineSet
EndChar

StartChar: E
Encoding: 69 69 40
Width: 0
VWidth: 894
GlyphClass: 4
Flags: W
LayerCount: 2
Fore
SplineSet
-409.098632812 523.744140625 m 1,0,-1
 -416.420898438 541.419921875 l 1,1,-1
 -409.099609375 559.099609375 l 1,2,-1
 -391.421875 566.421875 l 1,3,-1
 -373.745117188 559.099609375 l 1,4,-1
 -232.323242188 417.678710938 l 1,5,-1
 -225 400 l 1,6,-1
 -232.322265625 382.322265625 l 1,7,-1
 -250 375 l 1,8,-1
 -267.677734375 382.322265625 l 1,9,-1
 -409.098632812 523.744140625 l 1,0,-1
EndSplineSet
EndChar

StartChar: Q
Encoding: 81 81 41
Width: 500
Flags: W
LayerCount: 2
Fore
SplineSet
90.9013671875 359.098632812 m 1,0,-1
 108.579101562 366.420898438 l 1,1,-1
 250 425.000976562 l 1,2,-1
 409.098632812 359.098632812 l 1,3,-1
 475.000976562 200 l 1,4,-1
 409.098632812 40.9013671875 l 1,5,-1
 250 -25.0009765625 l 1,6,-1
 108.578125 33.578125 l 1,7,-1
 90.900390625 40.900390625 l 1,8,-1
 83.5791015625 58.580078125 l 1,9,-1
 90.9013671875 76.2568359375 l 1,10,-1
 108.579101562 83.580078125 l 1,11,-1
 126.255859375 76.2568359375 l 1,12,-1
 250 25 l 1,13,-1
 373.743164062 76.255859375 l 1,14,-1
 425 200 l 1,15,-1
 373.744140625 323.743164062 l 1,16,-1
 250 375 l 1,17,-1
 126.255859375 323.744140625 l 1,18,-1
 108.579101562 316.420898438 l 1,19,-1
 90.9013671875 323.744140625 l 1,20,-1
 83.5791015625 341.420898438 l 1,21,-1
 90.9013671875 359.098632812 l 1,0,-1
EndSplineSet
EndChar

StartChar: y
Encoding: 121 121 42
Width: 500
Flags: W
LayerCount: 2
Fore
SplineSet
90.9013671875 359.098632812 m 1,0,-1
 108.579101562 366.420898438 l 1,1,-1
 250 425.000976562 l 1,2,-1
 409.098632812 359.098632812 l 1,3,-1
 475.000976562 200 l 1,4,-1
 409.098632812 40.9013671875 l 1,5,-1
 250 -25.0009765625 l 1,6,-1
 108.578125 33.578125 l 1,7,-1
 90.900390625 40.900390625 l 1,8,-1
 83.5791015625 58.580078125 l 1,9,-1
 90.9013671875 76.2568359375 l 1,10,-1
 108.579101562 83.580078125 l 1,11,-1
 126.255859375 76.2568359375 l 1,12,-1
 250 25 l 1,13,-1
 373.743164062 76.255859375 l 1,14,-1
 425 200 l 1,15,-1
 373.744140625 323.743164062 l 1,16,-1
 250 375 l 1,17,-1
 126.255859375 323.744140625 l 1,18,-1
 108.579101562 316.420898438 l 1,19,-1
 90.9013671875 323.744140625 l 1,20,-1
 83.5791015625 341.420898438 l 1,21,-1
 90.9013671875 359.098632812 l 1,0,-1
108.578125 366.421875 m 1,22,-1
 126.255859375 359.099609375 l 1,23,-1
 409.099609375 76.255859375 l 1,24,-1
 416.421875 58.578125 l 1,25,-1
 409.099609375 40.900390625 l 1,26,-1
 391.421875 33.578125 l 1,27,-1
 373.744140625 40.900390625 l 1,28,-1
 90.900390625 323.744140625 l 1,29,-1
 83.578125 341.421875 l 1,30,-1
 90.900390625 359.099609375 l 1,31,-1
 108.578125 366.421875 l 1,22,-1
250 325 m 1,32,-1
 338.388671875 288.388671875 l 1,33,-1
 375 200 l 1,34,-1
 338.388671875 111.611328125 l 1,35,-1
 250 75 l 1,36,-1
 161.611328125 111.611328125 l 1,37,-1
 125 200 l 1,38,-1
 161.611328125 288.388671875 l 1,39,-1
 250 325 l 1,32,-1
250 275 m 1,40,-1
 196.966796875 253.033203125 l 1,41,-1
 175 200 l 1,42,-1
 196.966796875 146.966796875 l 1,43,-1
 250 125 l 1,44,-1
 303.033203125 146.966796875 l 1,45,-1
 325 200 l 1,46,-1
 303.033203125 253.033203125 l 1,47,-1
 250 275 l 1,40,-1
EndSplineSet
EndChar

StartChar: L
Encoding: 76 76 43
Width: 500
Flags: W
LayerCount: 2
Fore
SplineSet
250 425 m 1,0,-1
 391.421875 366.421875 l 1,1,-1
 409.099609375 359.099609375 l 1,2,-1
 416.421875 341.421875 l 1,3,-1
 475 200 l 1,4,-1
 416.421875 58.578125 l 1,5,-1
 409.099609375 40.900390625 l 1,6,-1
 391.421875 33.578125 l 1,7,-1
 250 -25 l 1,8,-1
 108.578125 33.578125 l 1,9,-1
 90.900390625 40.900390625 l 1,10,-1
 83.578125 58.578125 l 1,11,-1
 25 200 l 1,12,-1
 83.578125 341.421875 l 1,13,-1
 90.900390625 359.099609375 l 1,14,-1
 108.578125 366.421875 l 1,15,-1
 250 425 l 1,0,-1
250 375 m 1,16,-1
 126.255859375 323.744140625 l 1,17,-1
 75 200 l 1,18,-1
 126.255859375 76.255859375 l 1,19,-1
 250 25 l 1,20,-1
 373.744140625 76.255859375 l 1,21,-1
 425 200 l 1,22,-1
 373.744140625 323.744140625 l 1,23,-1
 250 375 l 1,16,-1
108.578125 366.421875 m 1,24,-1
 126.255859375 359.099609375 l 1,25,-1
 409.099609375 76.255859375 l 1,26,-1
 416.421875 58.578125 l 1,27,-1
 409.099609375 40.900390625 l 1,28,-1
 391.421875 33.578125 l 1,29,-1
 373.744140625 40.900390625 l 1,30,-1
 90.900390625 323.744140625 l 1,31,-1
 83.578125 341.421875 l 1,32,-1
 90.900390625 359.099609375 l 1,33,-1
 108.578125 366.421875 l 1,24,-1
EndSplineSet
EndChar

StartChar: J
Encoding: 74 74 44
Width: 500
Flags: W
LayerCount: 2
Fore
SplineSet
475 200 m 1,0,-1
 467.677734375 182.322265625 l 1,1,-1
 409.099609375 40.900390625 l 1,2,-1
 250 -25 l 1,3,-1
 90.900390625 40.900390625 l 1,4,-1
 25 200 l 1,5,-1
 90.900390625 359.099609375 l 1,6,-1
 232.322265625 417.677734375 l 1,7,-1
 250 425 l 1,8,-1
 267.677734375 417.677734375 l 1,9,-1
 275 400 l 1,10,-1
 267.677734375 382.322265625 l 1,11,-1
 250 375 l 1,12,-1
 126.255859375 323.744140625 l 1,13,-1
 75 200 l 1,14,-1
 126.255859375 76.255859375 l 1,15,-1
 250 25 l 1,16,-1
 373.744140625 76.255859375 l 1,17,-1
 425 200 l 1,18,-1
 432.322265625 217.677734375 l 1,19,-1
 450 225 l 1,20,-1
 467.677734375 217.677734375 l 1,21,-1
 475 200 l 1,0,-1
108.578125 366.421875 m 1,22,-1
 126.255859375 359.099609375 l 1,23,-1
 409.099609375 76.255859375 l 1,24,-1
 416.421875 58.578125 l 1,25,-1
 409.099609375 40.900390625 l 1,26,-1
 391.421875 33.578125 l 1,27,-1
 373.744140625 40.900390625 l 1,28,-1
 90.900390625 323.744140625 l 1,29,-1
 83.578125 341.421875 l 1,30,-1
 90.900390625 359.099609375 l 1,31,-1
 108.578125 366.421875 l 1,22,-1
250 325 m 1,32,-1
 338.388671875 288.388671875 l 1,33,-1
 375 200 l 1,34,-1
 338.388671875 111.611328125 l 1,35,-1
 250 75 l 1,36,-1
 161.611328125 111.611328125 l 1,37,-1
 125 200 l 1,38,-1
 161.611328125 288.388671875 l 1,39,-1
 250 325 l 1,32,-1
250 275 m 1,40,-1
 196.966796875 253.033203125 l 1,41,-1
 175 200 l 1,42,-1
 196.966796875 146.966796875 l 1,43,-1
 250 125 l 1,44,-1
 303.033203125 146.966796875 l 1,45,-1
 325 200 l 1,46,-1
 303.033203125 253.033203125 l 1,47,-1
 250 275 l 1,40,-1
EndSplineSet
EndChar

StartChar: asciicircum
Encoding: 94 94 45
Width: 500
Flags: W
LayerCount: 2
Fore
SplineSet
250 425.001953125 m 1,0,-1
 391.421875 366.421875 l 1,1,-1
 409.099609375 359.099609375 l 1,2,-1
 416.421875 341.419921875 l 1,3,-1
 409.099609375 323.7421875 l 1,4,-1
 391.421875 316.419921875 l 1,5,-1
 373.744140625 323.7421875 l 1,6,-1
 250 375 l 1,7,-1
 126.2578125 323.744140625 l 1,8,-1
 126.255859375 323.744140625 l 1,9,-1
 108.578125 316.421875 l 1,10,-1
 90.900390625 323.744140625 l 1,11,-1
 83.578125 341.421875 l 1,12,-1
 90.900390625 359.099609375 l 1,13,-1
 108.578125 366.421875 l 1,14,-1
 250 425.001953125 l 1,0,-1
EndSplineSet
EndChar

StartChar: G
Encoding: 71 71 46
Width: 500
Flags: W
LayerCount: 2
Fore
SplineSet
250 425 m 1,0,-1
 267.677734375 417.677734375 l 1,1,-1
 409.099609375 359.099609375 l 1,2,-1
 475 200 l 1,3,-1
 409.099609375 40.900390625 l 1,4,-1
 250 -25 l 1,5,-1
 90.900390625 40.900390625 l 1,6,-1
 32.322265625 182.322265625 l 1,7,-1
 25 200 l 1,8,-1
 32.322265625 217.677734375 l 1,9,-1
 50 225 l 1,10,-1
 67.677734375 217.677734375 l 1,11,-1
 75 200 l 1,12,-1
 126.255859375 76.255859375 l 1,13,-1
 250 25 l 1,14,-1
 373.744140625 76.255859375 l 1,15,-1
 425 200 l 1,16,-1
 373.744140625 323.744140625 l 1,17,-1
 250 375 l 1,18,-1
 232.322265625 382.322265625 l 1,19,-1
 225 400 l 1,20,-1
 232.322265625 417.677734375 l 1,21,-1
 250 425 l 1,0,-1
108.578125 366.421875 m 1,22,-1
 126.255859375 359.099609375 l 1,23,-1
 409.099609375 76.255859375 l 1,24,-1
 416.421875 58.578125 l 1,25,-1
 409.099609375 40.900390625 l 1,26,-1
 391.421875 33.578125 l 1,27,-1
 373.744140625 40.900390625 l 1,28,-1
 90.900390625 323.744140625 l 1,29,-1
 83.578125 341.421875 l 1,30,-1
 90.900390625 359.099609375 l 1,31,-1
 108.578125 366.421875 l 1,22,-1
EndSplineSet
EndChar

StartChar: S
Encoding: 83 83 47
Width: 500
Flags: W
LayerCount: 2
Fore
SplineSet
475 200 m 1,0,-1
 467.677734375 182.322265625 l 1,1,-1
 409.099609375 40.900390625 l 1,2,-1
 250 -25 l 1,3,-1
 90.900390625 40.900390625 l 1,4,-1
 25 200 l 1,5,-1
 90.900390625 359.099609375 l 1,6,-1
 232.322265625 417.677734375 l 1,7,-1
 250 425 l 1,8,-1
 267.677734375 417.677734375 l 1,9,-1
 275 400 l 1,10,-1
 267.677734375 382.322265625 l 1,11,-1
 250 375 l 1,12,-1
 126.255859375 323.744140625 l 1,13,-1
 75 200 l 1,14,-1
 126.255859375 76.255859375 l 1,15,-1
 250 25 l 1,16,-1
 373.744140625 76.255859375 l 1,17,-1
 425 200 l 1,18,-1
 432.322265625 217.677734375 l 1,19,-1
 450 225 l 1,20,-1
 467.677734375 217.677734375 l 1,21,-1
 475 200 l 1,0,-1
EndSplineSet
EndChar

StartChar: R
Encoding: 82 82 48
Width: 500
Flags: W
LayerCount: 2
Fore
SplineSet
250 425 m 1,0,-1
 391.421875 366.421875 l 1,1,-1
 409.099609375 359.099609375 l 1,2,-1
 416.421875 341.421875 l 1,3,-1
 475 200 l 1,4,-1
 416.421875 58.578125 l 1,5,-1
 409.099609375 40.900390625 l 1,6,-1
 391.421875 33.578125 l 1,7,-1
 250 -25 l 1,8,-1
 108.578125 33.578125 l 1,9,-1
 90.900390625 40.900390625 l 1,10,-1
 83.578125 58.578125 l 1,11,-1
 25 200 l 1,12,-1
 83.578125 341.421875 l 1,13,-1
 90.900390625 359.099609375 l 1,14,-1
 108.578125 366.421875 l 1,15,-1
 250 425 l 1,0,-1
250 375 m 1,16,-1
 126.255859375 323.744140625 l 1,17,-1
 75 200 l 1,18,-1
 126.255859375 76.255859375 l 1,19,-1
 250 25 l 1,20,-1
 373.744140625 76.255859375 l 1,21,-1
 425 200 l 1,22,-1
 373.744140625 323.744140625 l 1,23,-1
 250 375 l 1,16,-1
EndSplineSet
EndChar

StartChar: F
Encoding: 70 70 49
Width: 500
Flags: W
LayerCount: 2
Fore
SplineSet
90.9013671875 40.9013671875 m 1,0,-1
 83.5791015625 58.5791015625 l 1,1,-1
 24.9990234375 200 l 1,2,-1
 90.9013671875 359.098632812 l 1,3,-1
 250 425.000976562 l 1,4,-1
 409.098632812 359.098632812 l 1,5,-1
 475.000976562 200 l 1,6,-1
 416.421875 58.578125 l 1,7,-1
 409.099609375 40.900390625 l 1,8,-1
 391.419921875 33.5791015625 l 1,9,-1
 373.743164062 40.9013671875 l 1,10,-1
 366.419921875 58.5791015625 l 1,11,-1
 373.743164062 76.255859375 l 1,12,-1
 425 200 l 1,13,-1
 373.744140625 323.743164062 l 1,14,-1
 250 375 l 1,15,-1
 126.256835938 323.744140625 l 1,16,-1
 75 200 l 1,17,-1
 126.255859375 76.255859375 l 1,18,-1
 133.579101562 58.5791015625 l 1,19,-1
 126.255859375 40.9013671875 l 1,20,-1
 108.579101562 33.5791015625 l 1,21,-1
 90.9013671875 40.9013671875 l 1,0,-1
EndSplineSet
EndChar

StartChar: bracketright
Encoding: 93 93 50
Width: 500
Flags: W
LayerCount: 2
Fore
SplineSet
250 525 m 1,0,-1
 338.388671875 488.388671875 l 1,1,-1
 375 400 l 1,2,-1
 375 0 l 1,3,-1
 338.388671875 -88.388671875 l 1,4,-1
 250 -125 l 1,5,-1
 179.2890625 -95.7109375 l 1,6,-1
 161.611328125 -88.388671875 l 1,7,-1
 154.2890625 -70.7109375 l 1,8,-1
 161.611328125 -53.033203125 l 1,9,-1
 179.2890625 -45.7109375 l 1,10,-1
 196.966796875 -53.033203125 l 1,11,-1
 250 -75 l 1,12,-1
 303.033203125 -53.033203125 l 1,13,-1
 325 0 l 1,14,-1
 325 400 l 1,15,-1
 303.033203125 453.033203125 l 1,16,-1
 250 475 l 1,17,-1
 196.966796875 453.033203125 l 1,18,-1
 179.2890625 445.7109375 l 1,19,-1
 161.611328125 453.033203125 l 1,20,-1
 154.2890625 470.7109375 l 1,21,-1
 161.611328125 488.388671875 l 1,22,-1
 179.290039062 495.709960938 l 1,23,-1
 250 525 l 1,0,-1
EndSplineSet
EndChar

StartChar: B
Encoding: 66 66 51
Width: 500
Flags: W
LayerCount: 2
Fore
SplineSet
409.098632812 40.9013671875 m 1,0,-1
 391.420898438 33.5791015625 l 1,1,-1
 250 -25.0009765625 l 1,2,-1
 90.9013671875 40.9013671875 l 1,3,-1
 24.9990234375 200 l 1,4,-1
 90.9013671875 359.098632812 l 1,5,-1
 250 425.000976562 l 1,6,-1
 391.421875 366.421875 l 1,7,-1
 409.099609375 359.099609375 l 1,8,-1
 416.420898438 341.419921875 l 1,9,-1
 409.098632812 323.743164062 l 1,10,-1
 391.420898438 316.419921875 l 1,11,-1
 373.744140625 323.743164062 l 1,12,-1
 250 375 l 1,13,-1
 126.256835938 323.744140625 l 1,14,-1
 75 200 l 1,15,-1
 126.255859375 76.2568359375 l 1,16,-1
 250 25 l 1,17,-1
 373.744140625 76.255859375 l 1,18,-1
 391.420898438 83.5791015625 l 1,19,-1
 409.098632812 76.255859375 l 1,20,-1
 416.420898438 58.5791015625 l 1,21,-1
 409.098632812 40.9013671875 l 1,0,-1
108.578125 366.421875 m 1,22,-1
 126.255859375 359.099609375 l 1,23,-1
 409.099609375 76.255859375 l 1,24,-1
 416.421875 58.578125 l 1,25,-1
 409.099609375 40.900390625 l 1,26,-1
 391.421875 33.578125 l 1,27,-1
 373.744140625 40.900390625 l 1,28,-1
 90.900390625 323.744140625 l 1,29,-1
 83.578125 341.421875 l 1,30,-1
 90.900390625 359.099609375 l 1,31,-1
 108.578125 366.421875 l 1,22,-1
EndSplineSet
EndChar

StartChar: V
Encoding: 86 86 52
Width: 500
Flags: W
LayerCount: 2
Fore
SplineSet
90.9013671875 40.9013671875 m 1,0,-1
 83.5791015625 58.5791015625 l 1,1,-1
 24.9990234375 200 l 1,2,-1
 90.9013671875 359.098632812 l 1,3,-1
 250 425.000976562 l 1,4,-1
 409.098632812 359.098632812 l 1,5,-1
 475.000976562 200 l 1,6,-1
 416.421875 58.578125 l 1,7,-1
 409.099609375 40.900390625 l 1,8,-1
 391.419921875 33.5791015625 l 1,9,-1
 373.743164062 40.9013671875 l 1,10,-1
 366.419921875 58.5791015625 l 1,11,-1
 373.743164062 76.255859375 l 1,12,-1
 425 200 l 1,13,-1
 373.744140625 323.743164062 l 1,14,-1
 250 375 l 1,15,-1
 126.256835938 323.744140625 l 1,16,-1
 75 200 l 1,17,-1
 126.255859375 76.255859375 l 1,18,-1
 133.579101562 58.5791015625 l 1,19,-1
 126.255859375 40.9013671875 l 1,20,-1
 108.579101562 33.5791015625 l 1,21,-1
 90.9013671875 40.9013671875 l 1,0,-1
108.578125 366.421875 m 1,22,-1
 126.255859375 359.099609375 l 1,23,-1
 409.099609375 76.255859375 l 1,24,-1
 416.421875 58.578125 l 1,25,-1
 409.099609375 40.900390625 l 1,26,-1
 391.421875 33.578125 l 1,27,-1
 373.744140625 40.900390625 l 1,28,-1
 90.900390625 323.744140625 l 1,29,-1
 83.578125 341.421875 l 1,30,-1
 90.900390625 359.099609375 l 1,31,-1
 108.578125 366.421875 l 1,22,-1
EndSplineSet
EndChar

StartChar: M
Encoding: 77 77 53
Width: 500
Flags: W
LayerCount: 2
Fore
SplineSet
250 -25 m 1,0,-1
 232.322265625 -17.677734375 l 1,1,-1
 90.900390625 40.900390625 l 1,2,-1
 25 200 l 1,3,-1
 90.900390625 359.099609375 l 1,4,-1
 250 425 l 1,5,-1
 409.099609375 359.099609375 l 1,6,-1
 467.677734375 217.677734375 l 1,7,-1
 475 200 l 1,8,-1
 467.677734375 182.322265625 l 1,9,-1
 450 175 l 1,10,-1
 432.322265625 182.322265625 l 1,11,-1
 425 200 l 1,12,-1
 373.744140625 323.744140625 l 1,13,-1
 250 375 l 1,14,-1
 126.255859375 323.744140625 l 1,15,-1
 75 200 l 1,16,-1
 126.255859375 76.255859375 l 1,17,-1
 250 25 l 1,18,-1
 267.677734375 17.677734375 l 1,19,-1
 275 0 l 1,20,-1
 267.677734375 -17.677734375 l 1,21,-1
 250 -25 l 1,0,-1
EndSplineSet
EndChar

StartChar: Z
Encoding: 90 90 54
Width: 500
Flags: W
LayerCount: 2
Fore
SplineSet
475 200 m 1,0,-1
 467.677734375 182.322265625 l 1,1,-1
 409.099609375 40.900390625 l 1,2,-1
 250 -25 l 1,3,-1
 90.900390625 40.900390625 l 1,4,-1
 25 200 l 1,5,-1
 90.900390625 359.099609375 l 1,6,-1
 232.322265625 417.677734375 l 1,7,-1
 250 425 l 1,8,-1
 267.677734375 417.677734375 l 1,9,-1
 275 400 l 1,10,-1
 267.677734375 382.322265625 l 1,11,-1
 250 375 l 1,12,-1
 126.255859375 323.744140625 l 1,13,-1
 75 200 l 1,14,-1
 126.255859375 76.255859375 l 1,15,-1
 250 25 l 1,16,-1
 373.744140625 76.255859375 l 1,17,-1
 425 200 l 1,18,-1
 432.322265625 217.677734375 l 1,19,-1
 450 225 l 1,20,-1
 467.677734375 217.677734375 l 1,21,-1
 475 200 l 1,0,-1
108.578125 366.421875 m 1,22,-1
 126.255859375 359.099609375 l 1,23,-1
 409.099609375 76.255859375 l 1,24,-1
 416.421875 58.578125 l 1,25,-1
 409.099609375 40.900390625 l 1,26,-1
 391.421875 33.578125 l 1,27,-1
 373.744140625 40.900390625 l 1,28,-1
 90.900390625 323.744140625 l 1,29,-1
 83.578125 341.421875 l 1,30,-1
 90.900390625 359.099609375 l 1,31,-1
 108.578125 366.421875 l 1,22,-1
EndSplineSet
EndChar

StartChar: N
Encoding: 78 78 55
Width: 500
Flags: W
LayerCount: 2
Fore
SplineSet
250 -25 m 1,0,-1
 232.322265625 -17.677734375 l 1,1,-1
 90.900390625 40.900390625 l 1,2,-1
 25 200 l 1,3,-1
 90.900390625 359.099609375 l 1,4,-1
 250 425 l 1,5,-1
 409.099609375 359.099609375 l 1,6,-1
 467.677734375 217.677734375 l 1,7,-1
 475 200 l 1,8,-1
 467.677734375 182.322265625 l 1,9,-1
 450 175 l 1,10,-1
 432.322265625 182.322265625 l 1,11,-1
 425 200 l 1,12,-1
 373.744140625 323.744140625 l 1,13,-1
 250 375 l 1,14,-1
 126.255859375 323.744140625 l 1,15,-1
 75 200 l 1,16,-1
 126.255859375 76.255859375 l 1,17,-1
 250 25 l 1,18,-1
 267.677734375 17.677734375 l 1,19,-1
 275 0 l 1,20,-1
 267.677734375 -17.677734375 l 1,21,-1
 250 -25 l 1,0,-1
108.578125 366.421875 m 1,22,-1
 126.255859375 359.099609375 l 1,23,-1
 409.099609375 76.255859375 l 1,24,-1
 416.421875 58.578125 l 1,25,-1
 409.099609375 40.900390625 l 1,26,-1
 391.421875 33.578125 l 1,27,-1
 373.744140625 40.900390625 l 1,28,-1
 90.900390625 323.744140625 l 1,29,-1
 83.578125 341.421875 l 1,30,-1
 90.900390625 359.099609375 l 1,31,-1
 108.578125 366.421875 l 1,22,-1
EndSplineSet
EndChar

StartChar: W
Encoding: 87 87 56
Width: 0
VWidth: 894
GlyphClass: 4
Flags: W
LayerCount: 2
Fore
SplineSet
-450 25 m 1,0,-1
 -432.322265625 17.677734375 l 1,1,-1
 -425 0 l 1,2,-1
 -373.744140625 -123.744140625 l 1,3,-1
 -250 -175 l 1,4,-1
 -126.255859375 -123.744140625 l 1,5,-1
 -75 0 l 1,6,-1
 -67.677734375 17.677734375 l 1,7,-1
 -50 25 l 1,8,-1
 -32.322265625 17.677734375 l 1,9,-1
 -25 0 l 1,10,-1
 -32.322265625 -17.677734375 l 1,11,-1
 -90.900390625 -159.099609375 l 1,12,-1
 -250 -225 l 1,13,-1
 -409.099609375 -159.099609375 l 1,14,-1
 -467.677734375 -17.677734375 l 1,15,-1
 -475 0 l 1,16,-1
 -467.677734375 17.677734375 l 1,17,-1
 -450 25 l 1,0,-1
EndSplineSet
EndChar

StartChar: C
Encoding: 67 67 57
Width: 500
Flags: W
LayerCount: 2
Fore
SplineSet
90.9013671875 359.098632812 m 1,0,-1
 108.579101562 366.420898438 l 1,1,-1
 250 425.000976562 l 1,2,-1
 409.098632812 359.098632812 l 1,3,-1
 475.000976562 200 l 1,4,-1
 409.098632812 40.9013671875 l 1,5,-1
 250 -25.0009765625 l 1,6,-1
 108.578125 33.578125 l 1,7,-1
 90.900390625 40.900390625 l 1,8,-1
 83.5791015625 58.580078125 l 1,9,-1
 90.9013671875 76.2568359375 l 1,10,-1
 108.579101562 83.580078125 l 1,11,-1
 126.255859375 76.2568359375 l 1,12,-1
 250 25 l 1,13,-1
 373.743164062 76.255859375 l 1,14,-1
 425 200 l 1,15,-1
 373.744140625 323.743164062 l 1,16,-1
 250 375 l 1,17,-1
 126.255859375 323.744140625 l 1,18,-1
 108.579101562 316.420898438 l 1,19,-1
 90.9013671875 323.744140625 l 1,20,-1
 83.5791015625 341.420898438 l 1,21,-1
 90.9013671875 359.098632812 l 1,0,-1
108.578125 366.421875 m 1,22,-1
 126.255859375 359.099609375 l 1,23,-1
 409.099609375 76.255859375 l 1,24,-1
 416.421875 58.578125 l 1,25,-1
 409.099609375 40.900390625 l 1,26,-1
 391.421875 33.578125 l 1,27,-1
 373.744140625 40.900390625 l 1,28,-1
 90.900390625 323.744140625 l 1,29,-1
 83.578125 341.421875 l 1,30,-1
 90.900390625 359.099609375 l 1,31,-1
 108.578125 366.421875 l 1,22,-1
EndSplineSet
EndChar

StartChar: U
Encoding: 85 85 58
Width: 0
VWidth: 894
GlyphClass: 4
Flags: W
LayerCount: 2
Fore
SplineSet
-267.677734375 -17.677734375 m 1,0,-1
 -275 0 l 1,1,-1
 -267.677734375 17.677734375 l 1,2,-1
 -250 25 l 1,3,-1
 -232.322265625 17.677734375 l 1,4,-1
 -90.9013671875 -123.744140625 l 1,5,-1
 -83.5791015625 -141.420898438 l 1,6,-1
 -90.900390625 -159.099609375 l 1,7,-1
 -108.578125 -166.421875 l 1,8,-1
 -126.254882812 -159.099609375 l 1,9,-1
 -267.677734375 -17.677734375 l 1,0,-1
EndSplineSet
EndChar

StartChar: A
Encoding: 65 65 59
Width: 0
VWidth: 894
GlyphClass: 4
Flags: W
LayerCount: 2
Fore
SplineSet
-250 625 m 1,0,-1
 -90.900390625 559.099609375 l 1,1,-1
 -32.322265625 417.677734375 l 1,2,-1
 -25 400 l 1,3,-1
 -32.322265625 382.322265625 l 1,4,-1
 -50 375 l 1,5,-1
 -67.677734375 382.322265625 l 1,6,-1
 -75 400 l 1,7,-1
 -126.255859375 523.744140625 l 1,8,-1
 -250 575 l 1,9,-1
 -348.744140625 534.099609375 l 1,10,-1
 -232.322265625 417.677734375 l 1,11,-1
 -225 400 l 1,12,-1
 -232.322265625 382.322265625 l 1,13,-1
 -250 375 l 1,14,-1
 -267.677734375 382.322265625 l 1,15,-1
 -384.099609375 498.744140625 l 1,16,-1
 -425 400 l 1,17,-1
 -432.322265625 382.322265625 l 1,18,-1
 -450 375 l 1,19,-1
 -467.677734375 382.322265625 l 1,20,-1
 -475 400 l 1,21,-1
 -467.677734375 417.677734375 l 1,22,-1
 -416.421875 541.421875 l 1,23,-1
 -409.099609375 559.099609375 l 1,24,-1
 -391.421875 566.421875 l 1,25,-1
 -250 625 l 1,0,-1
EndSplineSet
EndChar

StartChar: i
Encoding: 105 105 60
Width: 0
VWidth: 894
GlyphClass: 4
Flags: W
LayerCount: 2
Fore
SplineSet
-250 625 m 1,0,-1
 -90.900390625 559.099609375 l 1,1,-1
 -32.322265625 417.677734375 l 1,2,-1
 -25 400 l 1,3,-1
 -32.322265625 382.322265625 l 1,4,-1
 -50 375 l 1,5,-1
 -67.677734375 382.322265625 l 1,6,-1
 -75 400 l 1,7,-1
 -126.255859375 523.744140625 l 1,8,-1
 -250 575 l 1,9,-1
 -373.744140625 523.744140625 l 1,10,-1
 -425 400 l 1,11,-1
 -432.322265625 382.322265625 l 1,12,-1
 -450 375 l 1,13,-1
 -467.677734375 382.322265625 l 1,14,-1
 -475 400 l 1,15,-1
 -467.677734375 417.677734375 l 1,16,-1
 -409.099609375 559.099609375 l 1,17,-1
 -250 625 l 1,0,-1
EndSplineSet
EndChar

StartChar: backslash
Encoding: 92 92 61
Width: 500
Flags: W
LayerCount: 2
Fore
SplineSet
108.578125 366.421875 m 1,0,-1
 126.255859375 359.099609375 l 1,1,-1
 409.099609375 76.255859375 l 1,2,-1
 416.421875 58.578125 l 1,3,-1
 409.099609375 40.900390625 l 1,4,-1
 391.421875 33.578125 l 1,5,-1
 373.744140625 40.900390625 l 1,6,-1
 90.900390625 323.744140625 l 1,7,-1
 83.578125 341.421875 l 1,8,-1
 90.900390625 359.099609375 l 1,9,-1
 108.578125 366.421875 l 1,0,-1
EndSplineSet
EndChar

StartChar: O
Encoding: 79 79 62
Width: 0
VWidth: 894
GlyphClass: 4
Flags: W
LayerCount: 2
Fore
SplineSet
-450 25 m 1,0,-1
 -432.322265625 17.677734375 l 1,1,-1
 -425 0 l 1,2,-1
 -373.744140625 -123.744140625 l 1,3,-1
 -250 -175 l 1,4,-1
 -151.255859375 -134.099609375 l 1,5,-1
 -267.677734375 -17.677734375 l 1,6,-1
 -275 0 l 1,7,-1
 -267.677734375 17.677734375 l 1,8,-1
 -250 25 l 1,9,-1
 -232.322265625 17.677734375 l 1,10,-1
 -115.900390625 -98.744140625 l 1,11,-1
 -75 0 l 1,12,-1
 -67.677734375 17.677734375 l 1,13,-1
 -50 25 l 1,14,-1
 -32.322265625 17.677734375 l 1,15,-1
 -25 0 l 1,16,-1
 -32.322265625 -17.677734375 l 1,17,-1
 -83.578125 -141.421875 l 1,18,-1
 -90.900390625 -159.099609375 l 1,19,-1
 -108.578125 -166.421875 l 1,20,-1
 -250 -225 l 1,21,-1
 -409.099609375 -159.099609375 l 1,22,-1
 -467.677734375 -17.677734375 l 1,23,-1
 -475 0 l 1,24,-1
 -467.677734375 17.677734375 l 1,25,-1
 -450 25 l 1,0,-1
EndSplineSet
EndChar

StartChar: bracketleft
Encoding: 91 91 63
Width: 500
Flags: W
LayerCount: 2
Fore
SplineSet
250 525 m 1,0,-1
 320.7109375 495.7109375 l 1,1,-1
 338.388671875 488.388671875 l 1,2,-1
 345.7109375 470.7109375 l 1,3,-1
 338.388671875 453.033203125 l 1,4,-1
 320.7109375 445.7109375 l 1,5,-1
 303.033203125 453.033203125 l 1,6,-1
 250 475 l 1,7,-1
 196.966796875 453.033203125 l 1,8,-1
 175 400 l 1,9,-1
 175 0 l 1,10,-1
 196.966796875 -53.033203125 l 1,11,-1
 250 -75 l 1,12,-1
 303.033203125 -53.033203125 l 1,13,-1
 320.7109375 -45.7109375 l 1,14,-1
 338.388671875 -53.033203125 l 1,15,-1
 345.7109375 -70.7109375 l 1,16,-1
 338.388671875 -88.388671875 l 1,17,-1
 320.709960938 -95.7099609375 l 1,18,-1
 250 -125 l 1,19,-1
 161.611328125 -88.388671875 l 1,20,-1
 125 0 l 1,21,-1
 125 400 l 1,22,-1
 161.611328125 488.388671875 l 1,23,-1
 250 525 l 1,0,-1
EndSplineSet
EndChar

StartChar: h
Encoding: 104 104 64
Width: 500
Flags: W
LayerCount: 2
Fore
SplineSet
25 200 m 1,0,-1
 32.322265625 217.677734375 l 1,1,-1
 90.900390625 359.099609375 l 1,2,-1
 250 425 l 1,3,-1
 409.099609375 359.099609375 l 1,4,-1
 475 200 l 1,5,-1
 409.099609375 40.900390625 l 1,6,-1
 267.677734375 -17.677734375 l 1,7,-1
 250 -25 l 1,8,-1
 232.322265625 -17.677734375 l 1,9,-1
 225 0 l 1,10,-1
 232.322265625 17.677734375 l 1,11,-1
 250 25 l 1,12,-1
 373.744140625 76.255859375 l 1,13,-1
 425 200 l 1,14,-1
 373.744140625 323.744140625 l 1,15,-1
 250 375 l 1,16,-1
 126.255859375 323.744140625 l 1,17,-1
 75 200 l 1,18,-1
 67.677734375 182.322265625 l 1,19,-1
 50 175 l 1,20,-1
 32.322265625 182.322265625 l 1,21,-1
 25 200 l 1,0,-1
EndSplineSet
EndChar

StartChar: at
Encoding: 64 64 65
Width: 500
Flags: W
LayerCount: 2
Fore
SplineSet
250 425 m 1,0,-1
 391.421875 366.421875 l 1,1,-1
 409.099609375 359.099609375 l 1,2,-1
 416.421875 341.421875 l 1,3,-1
 475 200 l 1,4,-1
 416.421875 58.578125 l 1,5,-1
 409.099609375 40.900390625 l 1,6,-1
 391.421875 33.578125 l 1,7,-1
 250 -25 l 1,8,-1
 108.578125 33.578125 l 1,9,-1
 90.900390625 40.900390625 l 1,10,-1
 83.578125 58.578125 l 1,11,-1
 25 200 l 1,12,-1
 83.578125 341.421875 l 1,13,-1
 90.900390625 359.099609375 l 1,14,-1
 108.578125 366.421875 l 1,15,-1
 250 425 l 1,0,-1
250 375 m 1,16,-1
 126.255859375 323.744140625 l 1,17,-1
 75 200 l 1,18,-1
 126.255859375 76.255859375 l 1,19,-1
 250 25 l 1,20,-1
 373.744140625 76.255859375 l 1,21,-1
 425 200 l 1,22,-1
 373.744140625 323.744140625 l 1,23,-1
 250 375 l 1,16,-1
250 325 m 1,24,-1
 338.388671875 288.388671875 l 1,25,-1
 375 200 l 1,26,-1
 338.388671875 111.611328125 l 1,27,-1
 250 75 l 1,28,-1
 161.611328125 111.611328125 l 1,29,-1
 125 200 l 1,30,-1
 161.611328125 288.388671875 l 1,31,-1
 250 325 l 1,24,-1
250 275 m 1,32,-1
 196.966796875 253.033203125 l 1,33,-1
 175 200 l 1,34,-1
 196.966796875 146.966796875 l 1,35,-1
 250 125 l 1,36,-1
 303.033203125 146.966796875 l 1,37,-1
 325 200 l 1,38,-1
 303.033203125 253.033203125 l 1,39,-1
 250 275 l 1,32,-1
108.578125 366.421875 m 1,40,-1
 126.255859375 359.099609375 l 1,41,-1
 409.099609375 76.255859375 l 1,42,-1
 416.421875 58.578125 l 1,43,-1
 409.099609375 40.900390625 l 1,44,-1
 391.421875 33.578125 l 1,45,-1
 373.744140625 40.900390625 l 1,46,-1
 90.900390625 323.744140625 l 1,47,-1
 83.578125 341.421875 l 1,48,-1
 90.900390625 359.099609375 l 1,49,-1
 108.578125 366.421875 l 1,40,-1
EndSplineSet
EndChar

StartChar: T
Encoding: 84 84 66
Width: 500
Flags: W
LayerCount: 2
Fore
SplineSet
409.098632812 359.098632812 m 1,0,-1
 416.420898438 341.420898438 l 1,1,-1
 475.000976562 200 l 1,2,-1
 409.098632812 40.9013671875 l 1,3,-1
 250 -25.0009765625 l 1,4,-1
 90.9013671875 40.9013671875 l 1,5,-1
 24.9990234375 200 l 1,6,-1
 83.578125 341.421875 l 1,7,-1
 90.900390625 359.099609375 l 1,8,-1
 108.580078125 366.420898438 l 1,9,-1
 126.256835938 359.098632812 l 1,10,-1
 133.580078125 341.420898438 l 1,11,-1
 126.256835938 323.744140625 l 1,12,-1
 75 200 l 1,13,-1
 126.255859375 76.2568359375 l 1,14,-1
 250 25 l 1,15,-1
 373.743164062 76.255859375 l 1,16,-1
 425 200 l 1,17,-1
 373.744140625 323.744140625 l 1,18,-1
 366.420898438 341.420898438 l 1,19,-1
 373.744140625 359.098632812 l 1,20,-1
 391.420898438 366.420898438 l 1,21,-1
 409.098632812 359.098632812 l 1,0,-1
EndSplineSet
EndChar

StartChar: greater
Encoding: 62 62 67
Width: 500
Flags: W
LayerCount: 2
Fore
SplineSet
154.290039062 129.290039062 m 1,0,-1
 161.611328125 146.966796875 l 1,1,-1
 179.2890625 154.2890625 l 1,2,-1
 196.966796875 146.966796875 l 1,3,-1
 250 125 l 1,4,-1
 303.033203125 146.966796875 l 1,5,-1
 325 200 l 1,6,-1
 303.033203125 253.033203125 l 1,7,-1
 250 275 l 1,8,-1
 196.966796875 253.033203125 l 1,9,-1
 179.2890625 245.7109375 l 1,10,-1
 161.611328125 253.033203125 l 1,11,-1
 154.2890625 270.7109375 l 1,12,-1
 161.611328125 288.388671875 l 1,13,-1
 179.290039062 295.709960938 l 1,14,-1
 250 325 l 1,15,-1
 338.388671875 288.388671875 l 1,16,-1
 375 200 l 1,17,-1
 338.388671875 111.611328125 l 1,18,-1
 250 75 l 1,19,-1
 179.2890625 104.2890625 l 1,20,-1
 161.611328125 111.611328125 l 1,21,-1
 154.290039062 129.290039062 l 1,0,-1
EndSplineSet
EndChar

StartChar: asterisk
Encoding: 42 42 68
Width: 500
Flags: W
LayerCount: 2
Fore
SplineSet
225 400 m 1,0,-1
 232.322265625 417.677734375 l 1,1,-1
 250 425 l 1,2,-1
 267.677734375 417.677734375 l 1,3,-1
 275 400 l 1,4,-1
 275 0 l 1,5,-1
 267.677734375 -17.677734375 l 1,6,-1
 250 -25 l 1,7,-1
 232.322265625 -17.677734375 l 1,8,-1
 225 0 l 1,9,-1
 225 400 l 1,0,-1
108.578125 366.421875 m 1,10,-1
 126.255859375 359.099609375 l 1,11,-1
 409.099609375 76.255859375 l 1,12,-1
 416.421875 58.578125 l 1,13,-1
 409.099609375 40.900390625 l 1,14,-1
 391.421875 33.578125 l 1,15,-1
 373.744140625 40.900390625 l 1,16,-1
 90.900390625 323.744140625 l 1,17,-1
 83.578125 341.421875 l 1,18,-1
 90.900390625 359.099609375 l 1,19,-1
 108.578125 366.421875 l 1,10,-1
373.744140625 359.098632812 m 1,20,-1
 391.420898438 366.420898438 l 1,21,-1
 409.098632812 359.098632812 l 1,22,-1
 416.420898438 341.420898438 l 1,23,-1
 409.098632812 323.744140625 l 1,24,-1
 126.255859375 40.9013671875 l 1,25,-1
 108.579101562 33.5791015625 l 1,26,-1
 90.9013671875 40.9013671875 l 1,27,-1
 83.5791015625 58.5791015625 l 1,28,-1
 90.9013671875 76.255859375 l 1,29,-1
 373.744140625 359.098632812 l 1,20,-1
EndSplineSet
EndChar

StartChar: three
Encoding: 51 51 69
Width: 500
Flags: W
LayerCount: 2
Fore
SplineSet
475 200 m 1,0,-1
 467.677734375 182.322265625 l 1,1,-1
 409.099609375 40.900390625 l 1,2,-1
 250 -25 l 1,3,-1
 90.900390625 40.900390625 l 1,4,-1
 25 200 l 1,5,-1
 90.900390625 359.099609375 l 1,6,-1
 232.322265625 417.677734375 l 1,7,-1
 250 425 l 1,8,-1
 267.677734375 417.677734375 l 1,9,-1
 275 400 l 1,10,-1
 267.677734375 382.322265625 l 1,11,-1
 250 375 l 1,12,-1
 126.255859375 323.744140625 l 1,13,-1
 75 200 l 1,14,-1
 126.255859375 76.255859375 l 1,15,-1
 250 25 l 1,16,-1
 373.744140625 76.255859375 l 1,17,-1
 425 200 l 1,18,-1
 432.322265625 217.677734375 l 1,19,-1
 450 225 l 1,20,-1
 467.677734375 217.677734375 l 1,21,-1
 475 200 l 1,0,-1
250 325 m 1,22,-1
 338.388671875 288.388671875 l 1,23,-1
 375 200 l 1,24,-1
 338.388671875 111.611328125 l 1,25,-1
 250 75 l 1,26,-1
 161.611328125 111.611328125 l 1,27,-1
 125 200 l 1,28,-1
 161.611328125 288.388671875 l 1,29,-1
 250 325 l 1,22,-1
250 275 m 1,30,-1
 196.966796875 253.033203125 l 1,31,-1
 175 200 l 1,32,-1
 196.966796875 146.966796875 l 1,33,-1
 250 125 l 1,34,-1
 303.033203125 146.966796875 l 1,35,-1
 325 200 l 1,36,-1
 303.033203125 253.033203125 l 1,37,-1
 250 275 l 1,30,-1
EndSplineSet
EndChar

StartChar: quotesingle
Encoding: 39 39 70
Width: 500
Flags: W
LayerCount: 2
Fore
SplineSet
250 425 m 1,0,-1
 267.677734375 417.677734375 l 1,1,-1
 275 400 l 1,2,-1
 267.677734375 382.322265625 l 1,3,-1
 250 375 l 1,4,-1
 232.322265625 382.322265625 l 1,5,-1
 225 400 l 1,6,-1
 232.322265625 417.677734375 l 1,7,-1
 250 425 l 1,0,-1
EndSplineSet
EndChar

StartChar: ampersand
Encoding: 38 38 71
Width: 500
Flags: W
LayerCount: 2
Fore
SplineSet
90.9013671875 359.098632812 m 1,0,-1
 108.579101562 366.420898438 l 1,1,-1
 250 425.000976562 l 1,2,-1
 409.098632812 359.098632812 l 1,3,-1
 475.000976562 200 l 1,4,-1
 409.098632812 40.9013671875 l 1,5,-1
 250 -25.0009765625 l 1,6,-1
 108.578125 33.578125 l 1,7,-1
 90.900390625 40.900390625 l 1,8,-1
 83.5791015625 58.580078125 l 1,9,-1
 90.9013671875 76.2568359375 l 1,10,-1
 108.579101562 83.580078125 l 1,11,-1
 126.255859375 76.2568359375 l 1,12,-1
 250 25 l 1,13,-1
 373.743164062 76.255859375 l 1,14,-1
 425 200 l 1,15,-1
 373.744140625 323.743164062 l 1,16,-1
 250 375 l 1,17,-1
 126.255859375 323.744140625 l 1,18,-1
 108.579101562 316.420898438 l 1,19,-1
 90.9013671875 323.744140625 l 1,20,-1
 83.5791015625 341.420898438 l 1,21,-1
 90.9013671875 359.098632812 l 1,0,-1
154.290039062 129.290039062 m 1,22,-1
 161.611328125 146.966796875 l 1,23,-1
 179.2890625 154.2890625 l 1,24,-1
 196.966796875 146.966796875 l 1,25,-1
 250 125 l 1,26,-1
 303.033203125 146.966796875 l 1,27,-1
 325 200 l 1,28,-1
 303.033203125 253.033203125 l 1,29,-1
 250 275 l 1,30,-1
 196.966796875 253.033203125 l 1,31,-1
 179.2890625 245.7109375 l 1,32,-1
 161.611328125 253.033203125 l 1,33,-1
 154.2890625 270.7109375 l 1,34,-1
 161.611328125 288.388671875 l 1,35,-1
 179.290039062 295.709960938 l 1,36,-1
 250 325 l 1,37,-1
 338.388671875 288.388671875 l 1,38,-1
 375 200 l 1,39,-1
 338.388671875 111.611328125 l 1,40,-1
 250 75 l 1,41,-1
 179.2890625 104.2890625 l 1,42,-1
 161.611328125 111.611328125 l 1,43,-1
 154.290039062 129.290039062 l 1,22,-1
250 225 m 1,44,-1
 267.677734375 217.677734375 l 1,45,-1
 275 200 l 1,46,-1
 267.677734375 182.322265625 l 1,47,-1
 250 175 l 1,48,-1
 232.322265625 182.322265625 l 1,49,-1
 225 200 l 1,50,-1
 232.322265625 217.677734375 l 1,51,-1
 250 225 l 1,44,-1
EndSplineSet
EndChar

StartChar: two
Encoding: 50 50 72
Width: 500
Flags: W
LayerCount: 2
Fore
SplineSet
409.098632812 359.098632812 m 1,0,-1
 416.420898438 341.420898438 l 1,1,-1
 475.000976562 200 l 1,2,-1
 409.098632812 40.9013671875 l 1,3,-1
 250 -25.0009765625 l 1,4,-1
 90.9013671875 40.9013671875 l 1,5,-1
 24.9990234375 200 l 1,6,-1
 83.578125 341.421875 l 1,7,-1
 90.900390625 359.099609375 l 1,8,-1
 108.580078125 366.420898438 l 1,9,-1
 126.256835938 359.098632812 l 1,10,-1
 133.580078125 341.420898438 l 1,11,-1
 126.256835938 323.744140625 l 1,12,-1
 75 200 l 1,13,-1
 126.255859375 76.2568359375 l 1,14,-1
 250 25 l 1,15,-1
 373.743164062 76.255859375 l 1,16,-1
 425 200 l 1,17,-1
 373.744140625 323.744140625 l 1,18,-1
 366.420898438 341.420898438 l 1,19,-1
 373.744140625 359.098632812 l 1,20,-1
 391.420898438 366.420898438 l 1,21,-1
 409.098632812 359.098632812 l 1,0,-1
250 325 m 1,22,-1
 338.388671875 288.388671875 l 1,23,-1
 375 200 l 1,24,-1
 338.388671875 111.611328125 l 1,25,-1
 250 75 l 1,26,-1
 161.611328125 111.611328125 l 1,27,-1
 125 200 l 1,28,-1
 161.611328125 288.388671875 l 1,29,-1
 250 325 l 1,22,-1
250 275 m 1,30,-1
 196.966796875 253.033203125 l 1,31,-1
 175 200 l 1,32,-1
 196.966796875 146.966796875 l 1,33,-1
 250 125 l 1,34,-1
 303.033203125 146.966796875 l 1,35,-1
 325 200 l 1,36,-1
 303.033203125 253.033203125 l 1,37,-1
 250 275 l 1,30,-1
EndSplineSet
EndChar

StartChar: equal
Encoding: 61 61 73
Width: 500
Flags: W
LayerCount: 2
Fore
SplineSet
250 325 m 1,0,-1
 320.7109375 295.7109375 l 1,1,-1
 338.388671875 288.388671875 l 1,2,-1
 345.7109375 270.7109375 l 1,3,-1
 338.388671875 253.033203125 l 1,4,-1
 320.7109375 245.7109375 l 1,5,-1
 303.033203125 253.033203125 l 1,6,-1
 250 275 l 1,7,-1
 196.966796875 253.033203125 l 1,8,-1
 179.2890625 245.7109375 l 1,9,-1
 161.611328125 253.033203125 l 1,10,-1
 154.2890625 270.7109375 l 1,11,-1
 161.611328125 288.388671875 l 1,12,-1
 179.2890625 295.7109375 l 1,13,-1
 250 325 l 1,0,-1
179.2890625 154.2890625 m 1,14,-1
 196.966796875 146.966796875 l 1,15,-1
 250 125 l 1,16,-1
 303.033203125 146.966796875 l 1,17,-1
 320.7109375 154.2890625 l 1,18,-1
 338.388671875 146.966796875 l 1,19,-1
 345.7109375 129.2890625 l 1,20,-1
 338.388671875 111.611328125 l 1,21,-1
 320.7109375 104.2890625 l 1,22,-1
 250 75 l 1,23,-1
 179.2890625 104.2890625 l 1,24,-1
 161.611328125 111.611328125 l 1,25,-1
 154.2890625 129.2890625 l 1,26,-1
 161.611328125 146.966796875 l 1,27,-1
 179.2890625 154.2890625 l 1,14,-1
EndSplineSet
EndChar

StartChar: plus
Encoding: 43 43 74
Width: 500
Flags: W
LayerCount: 2
Fore
SplineSet
225 400 m 1,0,-1
 232.322265625 417.677734375 l 1,1,-1
 250 425 l 1,2,-1
 267.677734375 417.677734375 l 1,3,-1
 275 400 l 1,4,-1
 275 0 l 1,5,-1
 267.677734375 -17.677734375 l 1,6,-1
 250 -25 l 1,7,-1
 232.322265625 -17.677734375 l 1,8,-1
 225 0 l 1,9,-1
 225 400 l 1,0,-1
50 225 m 1,10,-1
 450 225 l 1,11,-1
 467.677734375 217.677734375 l 1,12,-1
 475 200 l 1,13,-1
 467.677734375 182.322265625 l 1,14,-1
 450 175 l 1,15,-1
 50 175 l 1,16,-1
 32.322265625 182.322265625 l 1,17,-1
 25 200 l 1,18,-1
 32.322265625 217.677734375 l 1,19,-1
 50 225 l 1,10,-1
EndSplineSet
EndChar

StartChar: question
Encoding: 63 63 75
Width: 500
Flags: W
LayerCount: 2
Fore
SplineSet
250 425 m 1,0,-1
 267.677734375 417.677734375 l 1,1,-1
 275 400 l 1,2,-1
 267.677734375 382.322265625 l 1,3,-1
 250 375 l 1,4,-1
 232.322265625 382.322265625 l 1,5,-1
 225 400 l 1,6,-1
 232.322265625 417.677734375 l 1,7,-1
 250 425 l 1,0,-1
250 25 m 1,8,-1
 267.677734375 17.677734375 l 1,9,-1
 275 0 l 1,10,-1
 267.677734375 -17.677734375 l 1,11,-1
 250 -25 l 1,12,-1
 232.322265625 -17.677734375 l 1,13,-1
 225 0 l 1,14,-1
 232.322265625 17.677734375 l 1,15,-1
 250 25 l 1,8,-1
250 225 m 1,16,-1
 267.677734375 217.677734375 l 1,17,-1
 275 200 l 1,18,-1
 267.677734375 182.322265625 l 1,19,-1
 250 175 l 1,20,-1
 232.322265625 182.322265625 l 1,21,-1
 225 200 l 1,22,-1
 232.322265625 217.677734375 l 1,23,-1
 250 225 l 1,16,-1
EndSplineSet
EndChar

StartChar: dollar
Encoding: 36 36 76
Width: 500
Flags: W
LayerCount: 2
Fore
SplineSet
250 425.001953125 m 1,0,-1
 391.421875 366.421875 l 1,1,-1
 409.099609375 359.099609375 l 1,2,-1
 416.421875 341.419921875 l 1,3,-1
 409.099609375 323.7421875 l 1,4,-1
 391.421875 316.419921875 l 1,5,-1
 373.744140625 323.7421875 l 1,6,-1
 250 375 l 1,7,-1
 126.2578125 323.744140625 l 1,8,-1
 126.255859375 323.744140625 l 1,9,-1
 108.578125 316.421875 l 1,10,-1
 90.900390625 323.744140625 l 1,11,-1
 83.578125 341.421875 l 1,12,-1
 90.900390625 359.099609375 l 1,13,-1
 108.578125 366.421875 l 1,14,-1
 250 425.001953125 l 1,0,-1
108.578125 83.580078125 m 1,15,-1
 126.255859375 76.2578125 l 1,16,-1
 250 25 l 1,17,-1
 373.7421875 76.255859375 l 1,18,-1
 373.744140625 76.255859375 l 1,19,-1
 391.421875 83.578125 l 1,20,-1
 409.099609375 76.255859375 l 1,21,-1
 416.421875 58.578125 l 1,22,-1
 409.099609375 40.900390625 l 1,23,-1
 391.421875 33.578125 l 1,24,-1
 250 -25.001953125 l 1,25,-1
 108.578125 33.578125 l 1,26,-1
 90.900390625 40.900390625 l 1,27,-1
 83.578125 58.580078125 l 1,28,-1
 90.900390625 76.2578125 l 1,29,-1
 108.578125 83.580078125 l 1,15,-1
108.578125 366.421875 m 1,30,-1
 126.255859375 359.099609375 l 1,31,-1
 409.099609375 76.255859375 l 1,32,-1
 416.421875 58.578125 l 1,33,-1
 409.099609375 40.900390625 l 1,34,-1
 391.421875 33.578125 l 1,35,-1
 373.744140625 40.900390625 l 1,36,-1
 90.900390625 323.744140625 l 1,37,-1
 83.578125 341.421875 l 1,38,-1
 90.900390625 359.099609375 l 1,39,-1
 108.578125 366.421875 l 1,30,-1
225 600 m 1,40,-1
 232.322265625 617.677734375 l 1,41,-1
 250 625 l 1,42,-1
 267.677734375 617.677734375 l 1,43,-1
 275 600 l 1,44,-1
 275 -200 l 1,45,-1
 267.677734375 -217.677734375 l 1,46,-1
 250 -225 l 1,47,-1
 232.322265625 -217.677734375 l 1,48,-1
 225 -200 l 1,49,-1
 225 600 l 1,40,-1
EndSplineSet
EndChar

StartChar: zero
Encoding: 48 48 77
Width: 500
Flags: W
LayerCount: 2
Fore
SplineSet
250 325 m 1,0,-1
 338.388671875 288.388671875 l 1,1,-1
 375 200 l 1,2,-1
 338.388671875 111.611328125 l 1,3,-1
 250 75 l 1,4,-1
 161.611328125 111.611328125 l 1,5,-1
 125 200 l 1,6,-1
 161.611328125 288.388671875 l 1,7,-1
 250 325 l 1,0,-1
250 275 m 1,8,-1
 196.966796875 253.033203125 l 1,9,-1
 175 200 l 1,10,-1
 196.966796875 146.966796875 l 1,11,-1
 250 125 l 1,12,-1
 303.033203125 146.966796875 l 1,13,-1
 325 200 l 1,14,-1
 303.033203125 253.033203125 l 1,15,-1
 250 275 l 1,8,-1
EndSplineSet
EndChar

StartChar: one
Encoding: 49 49 78
Width: 500
Flags: W
LayerCount: 2
Fore
SplineSet
250 425 m 1,0,-1
 267.677734375 417.677734375 l 1,1,-1
 409.099609375 359.099609375 l 1,2,-1
 475 200 l 1,3,-1
 409.099609375 40.900390625 l 1,4,-1
 250 -25 l 1,5,-1
 90.900390625 40.900390625 l 1,6,-1
 32.322265625 182.322265625 l 1,7,-1
 25 200 l 1,8,-1
 32.322265625 217.677734375 l 1,9,-1
 50 225 l 1,10,-1
 67.677734375 217.677734375 l 1,11,-1
 75 200 l 1,12,-1
 126.255859375 76.255859375 l 1,13,-1
 250 25 l 1,14,-1
 373.744140625 76.255859375 l 1,15,-1
 425 200 l 1,16,-1
 373.744140625 323.744140625 l 1,17,-1
 250 375 l 1,18,-1
 232.322265625 382.322265625 l 1,19,-1
 225 400 l 1,20,-1
 232.322265625 417.677734375 l 1,21,-1
 250 425 l 1,0,-1
250 325 m 1,22,-1
 338.388671875 288.388671875 l 1,23,-1
 375 200 l 1,24,-1
 338.388671875 111.611328125 l 1,25,-1
 250 75 l 1,26,-1
 161.611328125 111.611328125 l 1,27,-1
 125 200 l 1,28,-1
 161.611328125 288.388671875 l 1,29,-1
 250 325 l 1,22,-1
250 275 m 1,30,-1
 196.966796875 253.033203125 l 1,31,-1
 175 200 l 1,32,-1
 196.966796875 146.966796875 l 1,33,-1
 250 125 l 1,34,-1
 303.033203125 146.966796875 l 1,35,-1
 325 200 l 1,36,-1
 303.033203125 253.033203125 l 1,37,-1
 250 275 l 1,30,-1
EndSplineSet
EndChar

StartChar: percent
Encoding: 37 37 79
Width: 500
Flags: W
LayerCount: 2
Fore
SplineSet
108.578125 366.421875 m 1,0,-1
 126.255859375 359.099609375 l 1,1,-1
 133.578125 341.421875 l 1,2,-1
 126.255859375 323.744140625 l 1,3,-1
 108.578125 316.421875 l 1,4,-1
 90.900390625 323.744140625 l 1,5,-1
 83.578125 341.421875 l 1,6,-1
 90.900390625 359.099609375 l 1,7,-1
 108.578125 366.421875 l 1,0,-1
391.421875 366.421875 m 1,8,-1
 409.099609375 359.099609375 l 1,9,-1
 416.421875 341.421875 l 1,10,-1
 409.099609375 323.744140625 l 1,11,-1
 126.255859375 40.900390625 l 1,12,-1
 108.578125 33.578125 l 1,13,-1
 90.900390625 40.900390625 l 1,14,-1
 83.578125 58.578125 l 1,15,-1
 90.900390625 76.255859375 l 1,16,-1
 373.744140625 359.099609375 l 1,17,-1
 391.421875 366.421875 l 1,8,-1
391.421875 83.578125 m 1,18,-1
 409.099609375 76.255859375 l 1,19,-1
 416.421875 58.578125 l 1,20,-1
 409.099609375 40.900390625 l 1,21,-1
 391.421875 33.578125 l 1,22,-1
 373.744140625 40.900390625 l 1,23,-1
 366.421875 58.578125 l 1,24,-1
 373.744140625 76.255859375 l 1,25,-1
 391.421875 83.578125 l 1,18,-1
EndSplineSet
EndChar

StartChar: comma
Encoding: 44 44 80
Width: 500
Flags: W
LayerCount: 2
Fore
SplineSet
450 225 m 1,0,-1
 467.677734375 217.677734375 l 1,1,-1
 475 200 l 1,2,-1
 467.677734375 182.322265625 l 1,3,-1
 450 175 l 1,4,-1
 432.322265625 182.322265625 l 1,5,-1
 425 200 l 1,6,-1
 432.322265625 217.677734375 l 1,7,-1
 450 225 l 1,0,-1
50 225 m 1,8,-1
 67.677734375 217.677734375 l 1,9,-1
 75 200 l 1,10,-1
 67.677734375 182.322265625 l 1,11,-1
 50 175 l 1,12,-1
 32.322265625 182.322265625 l 1,13,-1
 25 200 l 1,14,-1
 32.322265625 217.677734375 l 1,15,-1
 50 225 l 1,8,-1
250 225 m 1,16,-1
 267.677734375 217.677734375 l 1,17,-1
 275 200 l 1,18,-1
 267.677734375 182.322265625 l 1,19,-1
 250 175 l 1,20,-1
 232.322265625 182.322265625 l 1,21,-1
 225 200 l 1,22,-1
 232.322265625 217.677734375 l 1,23,-1
 250 225 l 1,16,-1
EndSplineSet
EndChar

StartChar: exclam
Encoding: 33 33 81
Width: 500
Flags: W
LayerCount: 2
Fore
SplineSet
250 425 m 1,0,-1
 267.677734375 417.677734375 l 1,1,-1
 275 400 l 1,2,-1
 267.677734375 382.322265625 l 1,3,-1
 250 375 l 1,4,-1
 232.322265625 382.322265625 l 1,5,-1
 225 400 l 1,6,-1
 232.322265625 417.677734375 l 1,7,-1
 250 425 l 1,0,-1
250 25 m 1,8,-1
 267.677734375 17.677734375 l 1,9,-1
 275 0 l 1,10,-1
 267.677734375 -17.677734375 l 1,11,-1
 250 -25 l 1,12,-1
 232.322265625 -17.677734375 l 1,13,-1
 225 0 l 1,14,-1
 232.322265625 17.677734375 l 1,15,-1
 250 25 l 1,8,-1
EndSplineSet
EndChar

StartChar: five
Encoding: 53 53 82
Width: 500
Flags: W
LayerCount: 2
Fore
SplineSet
250 425 m 1,0,-1
 391.421875 366.421875 l 1,1,-1
 409.099609375 359.099609375 l 1,2,-1
 416.421875 341.421875 l 1,3,-1
 475 200 l 1,4,-1
 416.421875 58.578125 l 1,5,-1
 409.099609375 40.900390625 l 1,6,-1
 391.421875 33.578125 l 1,7,-1
 250 -25 l 1,8,-1
 108.578125 33.578125 l 1,9,-1
 90.900390625 40.900390625 l 1,10,-1
 83.578125 58.578125 l 1,11,-1
 25 200 l 1,12,-1
 83.578125 341.421875 l 1,13,-1
 90.900390625 359.099609375 l 1,14,-1
 108.578125 366.421875 l 1,15,-1
 250 425 l 1,0,-1
250 375 m 1,16,-1
 126.255859375 323.744140625 l 1,17,-1
 75 200 l 1,18,-1
 126.255859375 76.255859375 l 1,19,-1
 250 25 l 1,20,-1
 373.744140625 76.255859375 l 1,21,-1
 425 200 l 1,22,-1
 373.744140625 323.744140625 l 1,23,-1
 250 375 l 1,16,-1
250 325 m 1,24,-1
 338.388671875 288.388671875 l 1,25,-1
 375 200 l 1,26,-1
 338.388671875 111.611328125 l 1,27,-1
 250 75 l 1,28,-1
 161.611328125 111.611328125 l 1,29,-1
 125 200 l 1,30,-1
 161.611328125 288.388671875 l 1,31,-1
 250 325 l 1,24,-1
250 275 m 1,32,-1
 196.966796875 253.033203125 l 1,33,-1
 175 200 l 1,34,-1
 196.966796875 146.966796875 l 1,35,-1
 250 125 l 1,36,-1
 303.033203125 146.966796875 l 1,37,-1
 325 200 l 1,38,-1
 303.033203125 253.033203125 l 1,39,-1
 250 275 l 1,32,-1
EndSplineSet
EndChar

StartChar: less
Encoding: 60 60 83
Width: 500
Flags: W
LayerCount: 2
Fore
SplineSet
345.709960938 270.709960938 m 1,0,-1
 338.388671875 253.033203125 l 1,1,-1
 320.7109375 245.7109375 l 1,2,-1
 303.033203125 253.033203125 l 1,3,-1
 250 275 l 1,4,-1
 196.966796875 253.033203125 l 1,5,-1
 175 200 l 1,6,-1
 196.966796875 146.966796875 l 1,7,-1
 250 125 l 1,8,-1
 303.033203125 146.966796875 l 1,9,-1
 320.7109375 154.2890625 l 1,10,-1
 338.388671875 146.966796875 l 1,11,-1
 345.7109375 129.2890625 l 1,12,-1
 338.388671875 111.611328125 l 1,13,-1
 320.709960938 104.290039062 l 1,14,-1
 250 75 l 1,15,-1
 161.611328125 111.611328125 l 1,16,-1
 125 200 l 1,17,-1
 161.611328125 288.388671875 l 1,18,-1
 250 325 l 1,19,-1
 320.7109375 295.7109375 l 1,20,-1
 338.388671875 288.388671875 l 1,21,-1
 345.709960938 270.709960938 l 1,0,-1
EndSplineSet
EndChar

StartChar: semicolon
Encoding: 59 59 84
Width: 500
Flags: W
LayerCount: 2
Fore
SplineSet
108.578125 366.421875 m 1,0,-1
 126.255859375 359.099609375 l 1,1,-1
 409.099609375 76.255859375 l 1,2,-1
 416.421875 58.578125 l 1,3,-1
 409.099609375 40.900390625 l 1,4,-1
 391.421875 33.578125 l 1,5,-1
 373.744140625 40.900390625 l 1,6,-1
 90.900390625 323.744140625 l 1,7,-1
 83.578125 341.421875 l 1,8,-1
 90.900390625 359.099609375 l 1,9,-1
 108.578125 366.421875 l 1,0,-1
450 225 m 1,10,-1
 467.677734375 217.677734375 l 1,11,-1
 475 200 l 1,12,-1
 467.677734375 182.322265625 l 1,13,-1
 450 175 l 1,14,-1
 432.322265625 182.322265625 l 1,15,-1
 425 200 l 1,16,-1
 432.322265625 217.677734375 l 1,17,-1
 450 225 l 1,10,-1
50 225 m 1,18,-1
 67.677734375 217.677734375 l 1,19,-1
 75 200 l 1,20,-1
 67.677734375 182.322265625 l 1,21,-1
 50 175 l 1,22,-1
 32.322265625 182.322265625 l 1,23,-1
 25 200 l 1,24,-1
 32.322265625 217.677734375 l 1,25,-1
 50 225 l 1,18,-1
250 225 m 1,26,-1
 267.677734375 217.677734375 l 1,27,-1
 275 200 l 1,28,-1
 267.677734375 182.322265625 l 1,29,-1
 250 175 l 1,30,-1
 232.322265625 182.322265625 l 1,31,-1
 225 200 l 1,32,-1
 232.322265625 217.677734375 l 1,33,-1
 250 225 l 1,26,-1
EndSplineSet
EndChar

StartChar: slash
Encoding: 47 47 85
Width: 500
Flags: W
LayerCount: 2
Fore
SplineSet
373.744140625 359.098632812 m 1,0,-1
 391.420898438 366.420898438 l 1,1,-1
 409.098632812 359.098632812 l 1,2,-1
 416.420898438 341.420898438 l 1,3,-1
 409.098632812 323.744140625 l 1,4,-1
 126.255859375 40.9013671875 l 1,5,-1
 108.579101562 33.5791015625 l 1,6,-1
 90.9013671875 40.9013671875 l 1,7,-1
 83.5791015625 58.5791015625 l 1,8,-1
 90.9013671875 76.255859375 l 1,9,-1
 373.744140625 359.098632812 l 1,0,-1
EndSplineSet
EndChar

StartChar: four
Encoding: 52 52 86
Width: 500
Flags: W
LayerCount: 2
Fore
SplineSet
90.9013671875 359.098632812 m 1,0,-1
 108.579101562 366.420898438 l 1,1,-1
 250 425.000976562 l 1,2,-1
 409.098632812 359.098632812 l 1,3,-1
 475.000976562 200 l 1,4,-1
 409.098632812 40.9013671875 l 1,5,-1
 250 -25.0009765625 l 1,6,-1
 108.578125 33.578125 l 1,7,-1
 90.900390625 40.900390625 l 1,8,-1
 83.5791015625 58.580078125 l 1,9,-1
 90.9013671875 76.2568359375 l 1,10,-1
 108.579101562 83.580078125 l 1,11,-1
 126.255859375 76.2568359375 l 1,12,-1
 250 25 l 1,13,-1
 373.743164062 76.255859375 l 1,14,-1
 425 200 l 1,15,-1
 373.744140625 323.743164062 l 1,16,-1
 250 375 l 1,17,-1
 126.255859375 323.744140625 l 1,18,-1
 108.579101562 316.420898438 l 1,19,-1
 90.9013671875 323.744140625 l 1,20,-1
 83.5791015625 341.420898438 l 1,21,-1
 90.9013671875 359.098632812 l 1,0,-1
250 325 m 1,22,-1
 338.388671875 288.388671875 l 1,23,-1
 375 200 l 1,24,-1
 338.388671875 111.611328125 l 1,25,-1
 250 75 l 1,26,-1
 161.611328125 111.611328125 l 1,27,-1
 125 200 l 1,28,-1
 161.611328125 288.388671875 l 1,29,-1
 250 325 l 1,22,-1
250 275 m 1,30,-1
 196.966796875 253.033203125 l 1,31,-1
 175 200 l 1,32,-1
 196.966796875 146.966796875 l 1,33,-1
 250 125 l 1,34,-1
 303.033203125 146.966796875 l 1,35,-1
 325 200 l 1,36,-1
 303.033203125 253.033203125 l 1,37,-1
 250 275 l 1,30,-1
EndSplineSet
EndChar

StartChar: six
Encoding: 54 54 87
Width: 500
Flags: W
LayerCount: 2
Fore
SplineSet
409.098632812 40.9013671875 m 1,0,-1
 391.420898438 33.5791015625 l 1,1,-1
 250 -25.0009765625 l 1,2,-1
 90.9013671875 40.9013671875 l 1,3,-1
 24.9990234375 200 l 1,4,-1
 90.9013671875 359.098632812 l 1,5,-1
 250 425.000976562 l 1,6,-1
 391.421875 366.421875 l 1,7,-1
 409.099609375 359.099609375 l 1,8,-1
 416.420898438 341.419921875 l 1,9,-1
 409.098632812 323.743164062 l 1,10,-1
 391.420898438 316.419921875 l 1,11,-1
 373.744140625 323.743164062 l 1,12,-1
 250 375 l 1,13,-1
 126.256835938 323.744140625 l 1,14,-1
 75 200 l 1,15,-1
 126.255859375 76.2568359375 l 1,16,-1
 250 25 l 1,17,-1
 373.744140625 76.255859375 l 1,18,-1
 391.420898438 83.5791015625 l 1,19,-1
 409.098632812 76.255859375 l 1,20,-1
 416.420898438 58.5791015625 l 1,21,-1
 409.098632812 40.9013671875 l 1,0,-1
250 325 m 1,22,-1
 338.388671875 288.388671875 l 1,23,-1
 375 200 l 1,24,-1
 338.388671875 111.611328125 l 1,25,-1
 250 75 l 1,26,-1
 161.611328125 111.611328125 l 1,27,-1
 125 200 l 1,28,-1
 161.611328125 288.388671875 l 1,29,-1
 250 325 l 1,22,-1
250 275 m 1,30,-1
 196.966796875 253.033203125 l 1,31,-1
 175 200 l 1,32,-1
 196.966796875 146.966796875 l 1,33,-1
 250 125 l 1,34,-1
 303.033203125 146.966796875 l 1,35,-1
 325 200 l 1,36,-1
 303.033203125 253.033203125 l 1,37,-1
 250 275 l 1,30,-1
EndSplineSet
EndChar

StartChar: quotedbl
Encoding: 34 34 88
Width: 500
Flags: W
LayerCount: 2
Fore
SplineSet
409.098632812 359.098632812 m 1,0,-1
 416.420898438 341.420898438 l 1,1,-1
 409.098632812 323.744140625 l 1,2,-1
 391.420898438 316.420898438 l 1,3,-1
 373.744140625 323.744140625 l 1,4,-1
 366.420898438 341.420898438 l 1,5,-1
 373.744140625 359.098632812 l 1,6,-1
 391.420898438 366.420898438 l 1,7,-1
 409.098632812 359.098632812 l 1,0,-1
90.9013671875 359.098632812 m 1,8,-1
 108.579101562 366.420898438 l 1,9,-1
 126.255859375 359.098632812 l 1,10,-1
 133.579101562 341.420898438 l 1,11,-1
 126.255859375 323.744140625 l 1,12,-1
 108.579101562 316.420898438 l 1,13,-1
 90.9013671875 323.744140625 l 1,14,-1
 83.5791015625 341.420898438 l 1,15,-1
 90.9013671875 359.098632812 l 1,8,-1
EndSplineSet
EndChar

StartChar: hyphen
Encoding: 45 45 89
Width: 500
Flags: W
LayerCount: 2
Fore
SplineSet
450 225 m 1,0,-1
 467.677734375 217.677734375 l 1,1,-1
 475 200 l 1,2,-1
 467.677734375 182.322265625 l 1,3,-1
 450 175 l 1,4,-1
 50 175 l 1,5,-1
 32.322265625 182.322265625 l 1,6,-1
 25 200 l 1,7,-1
 32.322265625 217.677734375 l 1,8,-1
 50 225 l 1,9,-1
 450 225 l 1,0,-1
EndSplineSet
EndChar

StartChar: period
Encoding: 46 46 90
Width: 500
Flags: W
LayerCount: 2
Fore
SplineSet
250 425 m 1,0,-1
 267.677734375 417.677734375 l 1,1,-1
 275 400 l 1,2,-1
 267.677734375 382.322265625 l 1,3,-1
 250 375 l 1,4,-1
 232.322265625 382.322265625 l 1,5,-1
 225 400 l 1,6,-1
 232.322265625 417.677734375 l 1,7,-1
 250 425 l 1,0,-1
450 225 m 1,8,-1
 467.677734375 217.677734375 l 1,9,-1
 475 200 l 1,10,-1
 467.677734375 182.322265625 l 1,11,-1
 450 175 l 1,12,-1
 432.322265625 182.322265625 l 1,13,-1
 425 200 l 1,14,-1
 432.322265625 217.677734375 l 1,15,-1
 450 225 l 1,8,-1
250 25 m 1,16,-1
 267.677734375 17.677734375 l 1,17,-1
 275 0 l 1,18,-1
 267.677734375 -17.677734375 l 1,19,-1
 250 -25 l 1,20,-1
 232.322265625 -17.677734375 l 1,21,-1
 225 0 l 1,22,-1
 232.322265625 17.677734375 l 1,23,-1
 250 25 l 1,16,-1
50 225 m 1,24,-1
 67.677734375 217.677734375 l 1,25,-1
 75 200 l 1,26,-1
 67.677734375 182.322265625 l 1,27,-1
 50 175 l 1,28,-1
 32.322265625 182.322265625 l 1,29,-1
 25 200 l 1,30,-1
 32.322265625 217.677734375 l 1,31,-1
 50 225 l 1,24,-1
250 225 m 1,32,-1
 267.677734375 217.677734375 l 1,33,-1
 275 200 l 1,34,-1
 267.677734375 182.322265625 l 1,35,-1
 250 175 l 1,36,-1
 232.322265625 182.322265625 l 1,37,-1
 225 200 l 1,38,-1
 232.322265625 217.677734375 l 1,39,-1
 250 225 l 1,32,-1
EndSplineSet
EndChar

StartChar: colon
Encoding: 58 58 91
Width: 500
Flags: W
LayerCount: 2
Fore
SplineSet
108.578125 366.421875 m 1,0,-1
 126.255859375 359.099609375 l 1,1,-1
 409.099609375 76.255859375 l 1,2,-1
 416.421875 58.578125 l 1,3,-1
 409.099609375 40.900390625 l 1,4,-1
 391.421875 33.578125 l 1,5,-1
 373.744140625 40.900390625 l 1,6,-1
 90.900390625 323.744140625 l 1,7,-1
 83.578125 341.421875 l 1,8,-1
 90.900390625 359.099609375 l 1,9,-1
 108.578125 366.421875 l 1,0,-1
250 425 m 1,10,-1
 267.677734375 417.677734375 l 1,11,-1
 275 400 l 1,12,-1
 267.677734375 382.322265625 l 1,13,-1
 250 375 l 1,14,-1
 232.322265625 382.322265625 l 1,15,-1
 225 400 l 1,16,-1
 232.322265625 417.677734375 l 1,17,-1
 250 425 l 1,10,-1
450 225 m 1,18,-1
 467.677734375 217.677734375 l 1,19,-1
 475 200 l 1,20,-1
 467.677734375 182.322265625 l 1,21,-1
 450 175 l 1,22,-1
 432.322265625 182.322265625 l 1,23,-1
 425 200 l 1,24,-1
 432.322265625 217.677734375 l 1,25,-1
 450 225 l 1,18,-1
250 25 m 1,26,-1
 267.677734375 17.677734375 l 1,27,-1
 275 0 l 1,28,-1
 267.677734375 -17.677734375 l 1,29,-1
 250 -25 l 1,30,-1
 232.322265625 -17.677734375 l 1,31,-1
 225 0 l 1,32,-1
 232.322265625 17.677734375 l 1,33,-1
 250 25 l 1,26,-1
50 225 m 1,34,-1
 67.677734375 217.677734375 l 1,35,-1
 75 200 l 1,36,-1
 67.677734375 182.322265625 l 1,37,-1
 50 175 l 1,38,-1
 32.322265625 182.322265625 l 1,39,-1
 25 200 l 1,40,-1
 32.322265625 217.677734375 l 1,41,-1
 50 225 l 1,34,-1
250 225 m 1,42,-1
 267.677734375 217.677734375 l 1,43,-1
 275 200 l 1,44,-1
 267.677734375 182.322265625 l 1,45,-1
 250 175 l 1,46,-1
 232.322265625 182.322265625 l 1,47,-1
 225 200 l 1,48,-1
 232.322265625 217.677734375 l 1,49,-1
 250 225 l 1,42,-1
EndSplineSet
EndChar

StartChar: numbersign
Encoding: 35 35 92
Width: 500
Flags: W
LayerCount: 2
Fore
SplineSet
409.098632812 40.9013671875 m 1,0,-1
 391.420898438 33.5791015625 l 1,1,-1
 250 -25.0009765625 l 1,2,-1
 90.9013671875 40.9013671875 l 1,3,-1
 24.9990234375 200 l 1,4,-1
 90.9013671875 359.098632812 l 1,5,-1
 250 425.000976562 l 1,6,-1
 391.421875 366.421875 l 1,7,-1
 409.099609375 359.099609375 l 1,8,-1
 416.420898438 341.419921875 l 1,9,-1
 409.098632812 323.743164062 l 1,10,-1
 391.420898438 316.419921875 l 1,11,-1
 373.744140625 323.743164062 l 1,12,-1
 250 375 l 1,13,-1
 126.256835938 323.744140625 l 1,14,-1
 75 200 l 1,15,-1
 126.255859375 76.2568359375 l 1,16,-1
 250 25 l 1,17,-1
 373.744140625 76.255859375 l 1,18,-1
 391.420898438 83.5791015625 l 1,19,-1
 409.098632812 76.255859375 l 1,20,-1
 416.420898438 58.5791015625 l 1,21,-1
 409.098632812 40.9013671875 l 1,0,-1
108.578125 366.421875 m 1,22,-1
 126.255859375 359.099609375 l 1,23,-1
 409.099609375 76.255859375 l 1,24,-1
 416.421875 58.578125 l 1,25,-1
 409.099609375 40.900390625 l 1,26,-1
 391.421875 33.578125 l 1,27,-1
 373.744140625 40.900390625 l 1,28,-1
 90.900390625 323.744140625 l 1,29,-1
 83.578125 341.421875 l 1,30,-1
 90.900390625 359.099609375 l 1,31,-1
 108.578125 366.421875 l 1,22,-1
225 600 m 1,32,-1
 232.322265625 617.677734375 l 1,33,-1
 250 625 l 1,34,-1
 267.677734375 617.677734375 l 1,35,-1
 275 600 l 1,36,-1
 275 -200 l 1,37,-1
 267.677734375 -217.677734375 l 1,38,-1
 250 -225 l 1,39,-1
 232.322265625 -217.677734375 l 1,40,-1
 225 -200 l 1,41,-1
 225 600 l 1,32,-1
EndSplineSet
EndChar

StartChar: seven
Encoding: 55 55 93
Width: 500
Flags: W
LayerCount: 2
Fore
SplineSet
25 200 m 1,0,-1
 32.322265625 217.677734375 l 1,1,-1
 90.900390625 359.099609375 l 1,2,-1
 250 425 l 1,3,-1
 409.099609375 359.099609375 l 1,4,-1
 475 200 l 1,5,-1
 409.099609375 40.900390625 l 1,6,-1
 267.677734375 -17.677734375 l 1,7,-1
 250 -25 l 1,8,-1
 232.322265625 -17.677734375 l 1,9,-1
 225 0 l 1,10,-1
 232.322265625 17.677734375 l 1,11,-1
 250 25 l 1,12,-1
 373.744140625 76.255859375 l 1,13,-1
 425 200 l 1,14,-1
 373.744140625 323.744140625 l 1,15,-1
 250 375 l 1,16,-1
 126.255859375 323.744140625 l 1,17,-1
 75 200 l 1,18,-1
 67.677734375 182.322265625 l 1,19,-1
 50 175 l 1,20,-1
 32.322265625 182.322265625 l 1,21,-1
 25 200 l 1,0,-1
250 325 m 1,22,-1
 338.388671875 288.388671875 l 1,23,-1
 375 200 l 1,24,-1
 338.388671875 111.611328125 l 1,25,-1
 250 75 l 1,26,-1
 161.611328125 111.611328125 l 1,27,-1
 125 200 l 1,28,-1
 161.611328125 288.388671875 l 1,29,-1
 250 325 l 1,22,-1
250 275 m 1,30,-1
 196.966796875 253.033203125 l 1,31,-1
 175 200 l 1,32,-1
 196.966796875 146.966796875 l 1,33,-1
 250 125 l 1,34,-1
 303.033203125 146.966796875 l 1,35,-1
 325 200 l 1,36,-1
 303.033203125 253.033203125 l 1,37,-1
 250 275 l 1,30,-1
EndSplineSet
EndChar

